<?xml version="1.0" encoding="UTF-8"?>
<svg width="2000" height="2000" style="overflow:visible" version="1.1" xmlns="http://www.w3.org/2000/svg">
  <rect x="20" y="20" width="200" height="70" style="fill:white; stroke:black;stroke-width:1" />
  <text x="30" y="35" style="fill:blue">Persona</text>
  <text x="30" y="50" style="fill:black">Jesus Alonso Garcia</text>
  <text x="30" y="65" style="fill:black">De: Oviedo</text>
  <text x="30" y="80" style="fill:black">Nacimiento: 05/07/2000</text>
  <rect x="250" y="20" width="200" height="70" style="fill:white; stroke:black;stroke-width:1" />
  <text x="260" y="35" style="fill:blue">Persona</text>
  <text x="260" y="50" style="fill:black">Earlene Aleks</text>
  <text x="260" y="65" style="fill:black">De: A coruna</text>
  <text x="260" y="80" style="fill:black">Nacimiento: 16/10/1950</text>
  <rect x="480" y="20" width="200" height="70" style="fill:white; stroke:black;stroke-width:1" />
  <text x="490" y="35" style="fill:blue">Persona</text>
  <text x="490" y="50" style="fill:black">Joanna Dominguez</text>
  <text x="490" y="65" style="fill:black">De: Leon</text>
  <text x="490" y="80" style="fill:black">Nacimiento: 24/12/1963</text>
  <line x1="450" y1="55.0" x2="480" y2="55.0" style="fill:transparent;stroke:black" />
  <rect x="480" y="120" width="200" height="70" style="fill:white; stroke:black;stroke-width:1" />
  <text x="490" y="135" style="fill:blue">Persona</text>
  <text x="490" y="150" style="fill:black">Marissa Montoya</text>
  <text x="490" y="165" style="fill:black">De: Bilbao</text>
  <text x="490" y="180" style="fill:black">Nacimiento: 18/08/1964</text>
  <line x1="450" y1="55.0" x2="480" y2="155.0" style="fill:transparent;stroke:black" />
  <rect x="480" y="220" width="200" height="70" style="fill:white; stroke:black;stroke-width:1" />
  <text x="490" y="235" style="fill:blue">Persona</text>
  <text x="490" y="250" style="fill:black">Valerie Larson</text>
  <text x="490" y="265" style="fill:black">De: Benidorm</text>
  <text x="490" y="280" style="fill:black">Nacimiento: 15/02/1984</text>
  <line x1="450" y1="55.0" x2="480" y2="255.0" style="fill:transparent;stroke:black" />
  <line x1="220" y1="55.0" x2="250" y2="55.0" style="fill:transparent;stroke:black" />
  <rect x="250" y="320" width="200" height="70" style="fill:white; stroke:black;stroke-width:1" />
  <text x="260" y="335" style="fill:blue">Persona</text>
  <text x="260" y="350" style="fill:black">Bridget Cisneros</text>
  <text x="260" y="365" style="fill:black">De: Gijon</text>
  <text x="260" y="380" style="fill:black">Nacimiento: 25/03/1987</text>
  <rect x="480" y="320" width="200" height="70" style="fill:white; stroke:black;stroke-width:1" />
  <text x="490" y="335" style="fill:blue">Persona</text>
  <text x="490" y="350" style="fill:black">Liz Charles</text>
  <text x="490" y="365" style="fill:black">De: Aviles</text>
  <text x="490" y="380" style="fill:black">Nacimiento: 20/04/1992</text>
  <line x1="450" y1="355.0" x2="480" y2="355.0" style="fill:transparent;stroke:black" />
  <rect x="480" y="420" width="200" height="70" style="fill:white; stroke:black;stroke-width:1" />
  <text x="490" y="435" style="fill:blue">Persona</text>
  <text x="490" y="450" style="fill:black">Booker Dawson</text>
  <text x="490" y="465" style="fill:black">De: Candas</text>
  <text x="490" y="480" style="fill:black">Nacimiento: 01/08/1994</text>
  <line x1="450" y1="355.0" x2="480" y2="455.0" style="fill:transparent;stroke:black" />
  <rect x="480" y="520" width="200" height="70" style="fill:white; stroke:black;stroke-width:1" />
  <text x="490" y="535" style="fill:blue">Persona</text>
  <text x="490" y="550" style="fill:black">Wanda Bennett</text>
  <text x="490" y="565" style="fill:black">De: Sevilla</text>
  <text x="490" y="580" style="fill:black">Nacimiento: 02/07/1998</text>
  <line x1="450" y1="355.0" x2="480" y2="555.0" style="fill:transparent;stroke:black" />
  <line x1="220" y1="55.0" x2="250" y2="355.0" style="fill:transparent;stroke:black" />
  <rect x="250" y="620" width="200" height="70" style="fill:white; stroke:black;stroke-width:1" />
  <text x="260" y="635" style="fill:blue">Persona</text>
  <text x="260" y="650" style="fill:black">Rory Zhang</text>
  <text x="260" y="665" style="fill:black">De: Madrid</text>
  <text x="260" y="680" style="fill:black">Nacimiento: 20/03/2008</text>
  <rect x="480" y="620" width="200" height="70" style="fill:white; stroke:black;stroke-width:1" />
  <text x="490" y="635" style="fill:blue">Persona</text>
  <text x="490" y="650" style="fill:black">Jayne Hunt</text>
  <text x="490" y="665" style="fill:black">De: Barcelona</text>
  <text x="490" y="680" style="fill:black">Nacimiento: 17/12/2013</text>
  <line x1="450" y1="655.0" x2="480" y2="655.0" style="fill:transparent;stroke:black" />
  <rect x="480" y="720" width="200" height="70" style="fill:white; stroke:black;stroke-width:1" />
  <text x="490" y="735" style="fill:blue">Persona</text>
  <text x="490" y="750" style="fill:black">Polly Waller</text>
  <text x="490" y="765" style="fill:black">De: Valencia</text>
  <text x="490" y="780" style="fill:black">Nacimiento: 20/05/2015</text>
  <line x1="450" y1="655.0" x2="480" y2="755.0" style="fill:transparent;stroke:black" />
  <rect x="480" y="820" width="200" height="70" style="fill:white; stroke:black;stroke-width:1" />
  <text x="490" y="835" style="fill:blue">Persona</text>
  <text x="490" y="850" style="fill:black">Wilford Cameron</text>
  <text x="490" y="865" style="fill:black">De: Jaen</text>
  <text x="490" y="880" style="fill:black">Nacimiento: 12/02/2016</text>
  <line x1="450" y1="655.0" x2="480" y2="855.0" style="fill:transparent;stroke:black" />
  <line x1="220" y1="55.0" x2="250" y2="655.0" style="fill:transparent;stroke:black" />
</svg>