<?xml version="1.0" encoding="utf-8"?><svg width="auto" height="6120" style="overflow:visible " version="1.1" xmlns="http://www.w3.org/2000/svg"><rect x="20" y="20" width="200" height="40" style="fill:white;stroke:black;stroke-width:1" /><text x="30" y="30" font-size="10" style="fill:blue">redsocial</text><text x="30" y="40" font-size="8" style="fill:black">xmlns: http://www.uniovi.es/personas</text><text x="30" y="50" font-size="8" style="fill:black">xsi:schemaLocation: http://www.uniovi.es/personas personas.xsd</text><text x="30" y="60" font-size="8" style="fill:black">xmlns:xsi: http://www.w3.org/2001/XMLSchema-instance</text><rect x="240" y="20" width="200" height="40" style="fill:white;stroke:black;stroke-width:1" /><text x="250" y="30" font-size="10" style="fill:blue">persona</text><path d="M220 40 C240 40 220 40 240 40" style="fill:transparent;stroke:black" /><text x="250" y="40" font-size="8" style="fill:black">nombre: Jesus</text><text x="250" y="50" font-size="8" style="fill:black">apellidos: Alonso Garcia</text><rect x="460" y="20" width="200" height="40" style="fill:white;stroke:black;stroke-width:1" /><text x="470" y="30" font-size="10" style="fill:blue">nacimiento</text><path d="M440 40 C460 40 440 40 460 40" style="fill:transparent;stroke:black" /><text x="470" y="40" font-size="8" style="fill:black">fecha: 05/07/2000</text><text x="470" y="50" font-size="8" style="fill:black">lugar: Oviedo</text><rect x="680" y="20" width="200" height="40" style="fill:white;stroke:black;stroke-width:1" /><text x="690" y="30" font-size="10" style="fill:blue">coordenadas</text><path d="M660 40 C680 40 660 40 680 40" style="fill:transparent;stroke:black" /><text x="690" y="40" font-size="8" style="fill:black">altitud: 224</text><text x="690" y="50" font-size="8" style="fill:black">latitud: 43.36347538113813</text><text x="690" y="60" font-size="8" style="fill:black">longitud: -5.844540267411897</text><rect x="460" y="120" width="200" height="40" style="fill:white;stroke:black;stroke-width:1" /><text x="470" y="130" font-size="10" style="fill:blue">residencia</text><path d="M440 40 C460 40 440 140 460 140" style="fill:transparent;stroke:black" /><text x="470" y="140" font-size="8" style="fill:black">lugar: A coruna</text><rect x="680" y="120" width="200" height="40" style="fill:white;stroke:black;stroke-width:1" /><text x="690" y="130" font-size="10" style="fill:blue">coordenadas</text><path d="M660 140 C680 140 660 140 680 140" style="fill:transparent;stroke:black" /><text x="690" y="140" font-size="8" style="fill:black">altitud: 26</text><text x="690" y="150" font-size="8" style="fill:black">latitud: 43.368342209026466</text><text x="690" y="160" font-size="8" style="fill:black">longitud: -8.409596135871102</text><rect x="460" y="220" width="200" height="40" style="fill:white;stroke:black;stroke-width:1" /><text x="470" y="230" font-size="10" style="fill:blue">fotografias</text><path d="M440 40 C460 40 440 240 460 240" style="fill:transparent;stroke:black" /><rect x="680" y="220" width="200" height="40" style="fill:white;stroke:black;stroke-width:1" /><text x="690" y="230" font-size="10" style="fill:blue">fotografia</text><path d="M660 240 C680 240 660 240 680 240" style="fill:transparent;stroke:black" /><text x="690" y="240" font-size="8" style="fill:black">path: img/f1.png</text><rect x="460" y="320" width="200" height="40" style="fill:white;stroke:black;stroke-width:1" /><text x="470" y="330" font-size="10" style="fill:blue">comentarios</text><path d="M440 40 C460 40 440 340 460 340" style="fill:transparent;stroke:black" /><rect x="680" y="320" width="200" height="40" style="fill:white;stroke:black;stroke-width:1" /><text x="690" y="330" font-size="10" style="fill:blue">comentario</text><path d="M660 340 C680 340 660 340 680 340" style="fill:transparent;stroke:black" /><text x="690" y="340" font-size="8" style="fill:black">valor: Un maquina</text><rect x="460" y="420" width="200" height="40" style="fill:white;stroke:black;stroke-width:1" /><text x="470" y="430" font-size="10" style="fill:blue">amigos</text><path d="M440 40 C460 40 440 440 460 440" style="fill:transparent;stroke:black" /><rect x="680" y="420" width="200" height="40" style="fill:white;stroke:black;stroke-width:1" /><text x="690" y="430" font-size="10" style="fill:blue">persona</text><path d="M660 440 C680 440 660 440 680 440" style="fill:transparent;stroke:black" /><text x="690" y="440" font-size="8" style="fill:black">nombre: Earlene</text><text x="690" y="450" font-size="8" style="fill:black">apellidos: Aleks</text><rect x="900" y="420" width="200" height="40" style="fill:white;stroke:black;stroke-width:1" /><text x="910" y="430" font-size="10" style="fill:blue">nacimiento</text><path d="M880 440 C900 440 880 440 900 440" style="fill:transparent;stroke:black" /><text x="910" y="440" font-size="8" style="fill:black">fecha: 16/10/1950</text><text x="910" y="450" font-size="8" style="fill:black">lugar: A coruna</text><rect x="1120" y="420" width="200" height="40" style="fill:white;stroke:black;stroke-width:1" /><text x="1130" y="430" font-size="10" style="fill:blue">coordenadas</text><path d="M1100 440 C1120 440 1100 440 1120 440" style="fill:transparent;stroke:black" /><text x="1130" y="440" font-size="8" style="fill:black">altitud: 26</text><text x="1130" y="450" font-size="8" style="fill:black">latitud: 43.368342209026466</text><text x="1130" y="460" font-size="8" style="fill:black">longitud: -8.409596135871102</text><rect x="900" y="520" width="200" height="40" style="fill:white;stroke:black;stroke-width:1" /><text x="910" y="530" font-size="10" style="fill:blue">residencia</text><path d="M880 440 C900 440 880 540 900 540" style="fill:transparent;stroke:black" /><text x="910" y="540" font-size="8" style="fill:black">lugar: A coruna</text><rect x="1120" y="520" width="200" height="40" style="fill:white;stroke:black;stroke-width:1" /><text x="1130" y="530" font-size="10" style="fill:blue">coordenadas</text><path d="M1100 540 C1120 540 1100 540 1120 540" style="fill:transparent;stroke:black" /><text x="1130" y="540" font-size="8" style="fill:black">altitud: 26</text><text x="1130" y="550" font-size="8" style="fill:black">latitud: 43.368342209026466</text><text x="1130" y="560" font-size="8" style="fill:black">longitud: -8.409596135871102</text><rect x="900" y="620" width="200" height="40" style="fill:white;stroke:black;stroke-width:1" /><text x="910" y="630" font-size="10" style="fill:blue">fotografias</text><path d="M880 440 C900 440 880 640 900 640" style="fill:transparent;stroke:black" /><rect x="1120" y="620" width="200" height="40" style="fill:white;stroke:black;stroke-width:1" /><text x="1130" y="630" font-size="10" style="fill:blue">fotografia</text><path d="M1100 640 C1120 640 1100 640 1120 640" style="fill:transparent;stroke:black" /><text x="1130" y="640" font-size="8" style="fill:black">path: img/f2.jpg</text><rect x="900" y="720" width="200" height="40" style="fill:white;stroke:black;stroke-width:1" /><text x="910" y="730" font-size="10" style="fill:blue">comentarios</text><path d="M880 440 C900 440 880 740 900 740" style="fill:transparent;stroke:black" /><rect x="1120" y="720" width="200" height="40" style="fill:white;stroke:black;stroke-width:1" /><text x="1130" y="730" font-size="10" style="fill:blue">comentario</text><path d="M1100 740 C1120 740 1100 740 1120 740" style="fill:transparent;stroke:black" /><text x="1130" y="740" font-size="8" style="fill:black">valor: Muy buena</text><rect x="900" y="820" width="200" height="40" style="fill:white;stroke:black;stroke-width:1" /><text x="910" y="830" font-size="10" style="fill:blue">amigos</text><path d="M880 440 C900 440 880 840 900 840" style="fill:transparent;stroke:black" /><rect x="1120" y="820" width="200" height="40" style="fill:white;stroke:black;stroke-width:1" /><text x="1130" y="830" font-size="10" style="fill:blue">persona</text><path d="M1100 840 C1120 840 1100 840 1120 840" style="fill:transparent;stroke:black" /><text x="1130" y="840" font-size="8" style="fill:black">nombre: Joanna</text><text x="1130" y="850" font-size="8" style="fill:black">apellidos: Dominguez</text><rect x="1340" y="820" width="200" height="40" style="fill:white;stroke:black;stroke-width:1" /><text x="1350" y="830" font-size="10" style="fill:blue">nacimiento</text><path d="M1320 840 C1340 840 1320 840 1340 840" style="fill:transparent;stroke:black" /><text x="1350" y="840" font-size="8" style="fill:black">fecha: 24/12/1963</text><text x="1350" y="850" font-size="8" style="fill:black">lugar: Leon</text><rect x="1560" y="820" width="200" height="40" style="fill:white;stroke:black;stroke-width:1" /><text x="1570" y="830" font-size="10" style="fill:blue">coordenadas</text><path d="M1540 840 C1560 840 1540 840 1560 840" style="fill:transparent;stroke:black" /><text x="1570" y="840" font-size="8" style="fill:black">altitud: 827</text><text x="1570" y="850" font-size="8" style="fill:black">latitud: 42.60080451442869</text><text x="1570" y="860" font-size="8" style="fill:black">longitud: -5.573273793628222</text><rect x="1340" y="920" width="200" height="40" style="fill:white;stroke:black;stroke-width:1" /><text x="1350" y="930" font-size="10" style="fill:blue">residencia</text><path d="M1320 840 C1340 840 1320 940 1340 940" style="fill:transparent;stroke:black" /><text x="1350" y="940" font-size="8" style="fill:black">lugar: A coruna</text><rect x="1560" y="920" width="200" height="40" style="fill:white;stroke:black;stroke-width:1" /><text x="1570" y="930" font-size="10" style="fill:blue">coordenadas</text><path d="M1540 940 C1560 940 1540 940 1560 940" style="fill:transparent;stroke:black" /><text x="1570" y="940" font-size="8" style="fill:black">altitud: 26</text><text x="1570" y="950" font-size="8" style="fill:black">latitud: 43.368342209026466</text><text x="1570" y="960" font-size="8" style="fill:black">longitud: -8.409596135871102</text><rect x="1340" y="1020" width="200" height="40" style="fill:white;stroke:black;stroke-width:1" /><text x="1350" y="1030" font-size="10" style="fill:blue">fotografias</text><path d="M1320 840 C1340 840 1320 1040 1340 1040" style="fill:transparent;stroke:black" /><rect x="1560" y="1020" width="200" height="40" style="fill:white;stroke:black;stroke-width:1" /><text x="1570" y="1030" font-size="10" style="fill:blue">fotografia</text><path d="M1540 1040 C1560 1040 1540 1040 1560 1040" style="fill:transparent;stroke:black" /><text x="1570" y="1040" font-size="8" style="fill:black">path: img/f3.jpg</text><rect x="1340" y="1120" width="200" height="40" style="fill:white;stroke:black;stroke-width:1" /><text x="1350" y="1130" font-size="10" style="fill:blue">comentarios</text><path d="M1320 840 C1340 840 1320 1140 1340 1140" style="fill:transparent;stroke:black" /><rect x="1560" y="1120" width="200" height="40" style="fill:white;stroke:black;stroke-width:1" /><text x="1570" y="1130" font-size="10" style="fill:blue">comentario</text><path d="M1540 1140 C1560 1140 1540 1140 1560 1140" style="fill:transparent;stroke:black" /><text x="1570" y="1140" font-size="8" style="fill:black">valor: Muy lista</text><rect x="1120" y="1270" width="200" height="40" style="fill:white;stroke:black;stroke-width:1" /><text x="1130" y="1280" font-size="10" style="fill:blue">persona</text><path d="M1100 840 C1120 840 1100 1290 1120 1290" style="fill:transparent;stroke:black" /><text x="1130" y="1290" font-size="8" style="fill:black">nombre: Marissa</text><text x="1130" y="1300" font-size="8" style="fill:black">apellidos: Montoya</text><rect x="1340" y="1270" width="200" height="40" style="fill:white;stroke:black;stroke-width:1" /><text x="1350" y="1280" font-size="10" style="fill:blue">nacimiento</text><path d="M1320 1290 C1340 1290 1320 1290 1340 1290" style="fill:transparent;stroke:black" /><text x="1350" y="1290" font-size="8" style="fill:black">fecha: 18/08/1964</text><text x="1350" y="1300" font-size="8" style="fill:black">lugar: Bilbao</text><rect x="1560" y="1270" width="200" height="40" style="fill:white;stroke:black;stroke-width:1" /><text x="1570" y="1280" font-size="10" style="fill:blue">coordenadas</text><path d="M1540 1290 C1560 1290 1540 1290 1560 1290" style="fill:transparent;stroke:black" /><text x="1570" y="1290" font-size="8" style="fill:black">altitud: 14</text><text x="1570" y="1300" font-size="8" style="fill:black">latitud: 43.267802182831296</text><text x="1570" y="1310" font-size="8" style="fill:black">longitud: -2.9332234211251147</text><rect x="1340" y="1370" width="200" height="40" style="fill:white;stroke:black;stroke-width:1" /><text x="1350" y="1380" font-size="10" style="fill:blue">residencia</text><path d="M1320 1290 C1340 1290 1320 1390 1340 1390" style="fill:transparent;stroke:black" /><text x="1350" y="1390" font-size="8" style="fill:black">lugar: A coruna</text><rect x="1560" y="1370" width="200" height="40" style="fill:white;stroke:black;stroke-width:1" /><text x="1570" y="1380" font-size="10" style="fill:blue">coordenadas</text><path d="M1540 1390 C1560 1390 1540 1390 1560 1390" style="fill:transparent;stroke:black" /><text x="1570" y="1390" font-size="8" style="fill:black">altitud: 26</text><text x="1570" y="1400" font-size="8" style="fill:black">latitud: 43.368342209026466</text><text x="1570" y="1410" font-size="8" style="fill:black">longitud: -8.409596135871102</text><rect x="1340" y="1470" width="200" height="40" style="fill:white;stroke:black;stroke-width:1" /><text x="1350" y="1480" font-size="10" style="fill:blue">fotografias</text><path d="M1320 1290 C1340 1290 1320 1490 1340 1490" style="fill:transparent;stroke:black" /><rect x="1560" y="1470" width="200" height="40" style="fill:white;stroke:black;stroke-width:1" /><text x="1570" y="1480" font-size="10" style="fill:blue">fotografia</text><path d="M1540 1490 C1560 1490 1540 1490 1560 1490" style="fill:transparent;stroke:black" /><text x="1570" y="1490" font-size="8" style="fill:black">path: img/f4.jpg</text><rect x="1340" y="1570" width="200" height="40" style="fill:white;stroke:black;stroke-width:1" /><text x="1350" y="1580" font-size="10" style="fill:blue">comentarios</text><path d="M1320 1290 C1340 1290 1320 1590 1340 1590" style="fill:transparent;stroke:black" /><rect x="1560" y="1570" width="200" height="40" style="fill:white;stroke:black;stroke-width:1" /><text x="1570" y="1580" font-size="10" style="fill:blue">comentario</text><path d="M1540 1590 C1560 1590 1540 1590 1560 1590" style="fill:transparent;stroke:black" /><text x="1570" y="1590" font-size="8" style="fill:black">valor: Muy trabajadora</text><rect x="1120" y="1720" width="200" height="40" style="fill:white;stroke:black;stroke-width:1" /><text x="1130" y="1730" font-size="10" style="fill:blue">persona</text><path d="M1100 840 C1120 840 1100 1740 1120 1740" style="fill:transparent;stroke:black" /><text x="1130" y="1740" font-size="8" style="fill:black">nombre: Valerie</text><text x="1130" y="1750" font-size="8" style="fill:black">apellidos: Larson</text><rect x="1340" y="1720" width="200" height="40" style="fill:white;stroke:black;stroke-width:1" /><text x="1350" y="1730" font-size="10" style="fill:blue">nacimiento</text><path d="M1320 1740 C1340 1740 1320 1740 1340 1740" style="fill:transparent;stroke:black" /><text x="1350" y="1740" font-size="8" style="fill:black">fecha: 15/02/1984</text><text x="1350" y="1750" font-size="8" style="fill:black">lugar: Benidorm</text><rect x="1560" y="1720" width="200" height="40" style="fill:white;stroke:black;stroke-width:1" /><text x="1570" y="1730" font-size="10" style="fill:blue">coordenadas</text><path d="M1540 1740 C1560 1740 1540 1740 1560 1740" style="fill:transparent;stroke:black" /><text x="1570" y="1740" font-size="8" style="fill:black">altitud: 14</text><text x="1570" y="1750" font-size="8" style="fill:black">latitud: 38.547322219459964</text><text x="1570" y="1760" font-size="8" style="fill:black">longitud: -0.12553480285098015</text><rect x="1340" y="1820" width="200" height="40" style="fill:white;stroke:black;stroke-width:1" /><text x="1350" y="1830" font-size="10" style="fill:blue">residencia</text><path d="M1320 1740 C1340 1740 1320 1840 1340 1840" style="fill:transparent;stroke:black" /><text x="1350" y="1840" font-size="8" style="fill:black">lugar: A coruna</text><rect x="1560" y="1820" width="200" height="40" style="fill:white;stroke:black;stroke-width:1" /><text x="1570" y="1830" font-size="10" style="fill:blue">coordenadas</text><path d="M1540 1840 C1560 1840 1540 1840 1560 1840" style="fill:transparent;stroke:black" /><text x="1570" y="1840" font-size="8" style="fill:black">altitud: 26</text><text x="1570" y="1850" font-size="8" style="fill:black">latitud: 43.368342209026466</text><text x="1570" y="1860" font-size="8" style="fill:black">longitud: -8.409596135871102</text><rect x="1340" y="1920" width="200" height="40" style="fill:white;stroke:black;stroke-width:1" /><text x="1350" y="1930" font-size="10" style="fill:blue">fotografias</text><path d="M1320 1740 C1340 1740 1320 1940 1340 1940" style="fill:transparent;stroke:black" /><rect x="1560" y="1920" width="200" height="40" style="fill:white;stroke:black;stroke-width:1" /><text x="1570" y="1930" font-size="10" style="fill:blue">fotografia</text><path d="M1540 1940 C1560 1940 1540 1940 1560 1940" style="fill:transparent;stroke:black" /><text x="1570" y="1940" font-size="8" style="fill:black">path: img/f5.jpg</text><rect x="1340" y="2020" width="200" height="40" style="fill:white;stroke:black;stroke-width:1" /><text x="1350" y="2030" font-size="10" style="fill:blue">comentarios</text><path d="M1320 1740 C1340 1740 1320 2040 1340 2040" style="fill:transparent;stroke:black" /><rect x="1560" y="2020" width="200" height="40" style="fill:white;stroke:black;stroke-width:1" /><text x="1570" y="2030" font-size="10" style="fill:blue">comentario</text><path d="M1540 2040 C1560 2040 1540 2040 1560 2040" style="fill:transparent;stroke:black" /><text x="1570" y="2040" font-size="8" style="fill:black">valor: Muy ordenada</text><rect x="680" y="2270" width="200" height="40" style="fill:white;stroke:black;stroke-width:1" /><text x="690" y="2280" font-size="10" style="fill:blue">persona</text><path d="M660 440 C680 440 660 2290 680 2290" style="fill:transparent;stroke:black" /><text x="690" y="2290" font-size="8" style="fill:black">nombre: Bridget</text><text x="690" y="2300" font-size="8" style="fill:black">apellidos: Cisneros</text><rect x="900" y="2270" width="200" height="40" style="fill:white;stroke:black;stroke-width:1" /><text x="910" y="2280" font-size="10" style="fill:blue">nacimiento</text><path d="M880 2290 C900 2290 880 2290 900 2290" style="fill:transparent;stroke:black" /><text x="910" y="2290" font-size="8" style="fill:black">fecha: 25/03/1987</text><text x="910" y="2300" font-size="8" style="fill:black">lugar: Gijon</text><rect x="1120" y="2270" width="200" height="40" style="fill:white;stroke:black;stroke-width:1" /><text x="1130" y="2280" font-size="10" style="fill:blue">coordenadas</text><path d="M1100 2290 C1120 2290 1100 2290 1120 2290" style="fill:transparent;stroke:black" /><text x="1130" y="2290" font-size="8" style="fill:black">altitud: 14</text><text x="1130" y="2300" font-size="8" style="fill:black">latitud: 43.53204537348051</text><text x="1130" y="2310" font-size="8" style="fill:black">longitud:  -5.661588678368995</text><rect x="900" y="2370" width="200" height="40" style="fill:white;stroke:black;stroke-width:1" /><text x="910" y="2380" font-size="10" style="fill:blue">residencia</text><path d="M880 2290 C900 2290 880 2390 900 2390" style="fill:transparent;stroke:black" /><text x="910" y="2390" font-size="8" style="fill:black">lugar: A coruna</text><rect x="1120" y="2370" width="200" height="40" style="fill:white;stroke:black;stroke-width:1" /><text x="1130" y="2380" font-size="10" style="fill:blue">coordenadas</text><path d="M1100 2390 C1120 2390 1100 2390 1120 2390" style="fill:transparent;stroke:black" /><text x="1130" y="2390" font-size="8" style="fill:black">altitud: 26</text><text x="1130" y="2400" font-size="8" style="fill:black">latitud: 43.368342209026466</text><text x="1130" y="2410" font-size="8" style="fill:black">longitud: -8.409596135871102</text><rect x="900" y="2470" width="200" height="40" style="fill:white;stroke:black;stroke-width:1" /><text x="910" y="2480" font-size="10" style="fill:blue">fotografias</text><path d="M880 2290 C900 2290 880 2490 900 2490" style="fill:transparent;stroke:black" /><rect x="1120" y="2470" width="200" height="40" style="fill:white;stroke:black;stroke-width:1" /><text x="1130" y="2480" font-size="10" style="fill:blue">fotografia</text><path d="M1100 2490 C1120 2490 1100 2490 1120 2490" style="fill:transparent;stroke:black" /><text x="1130" y="2490" font-size="8" style="fill:black">path: img/f6.jpg</text><rect x="900" y="2570" width="200" height="40" style="fill:white;stroke:black;stroke-width:1" /><text x="910" y="2580" font-size="10" style="fill:blue">comentarios</text><path d="M880 2290 C900 2290 880 2590 900 2590" style="fill:transparent;stroke:black" /><rect x="1120" y="2570" width="200" height="40" style="fill:white;stroke:black;stroke-width:1" /><text x="1130" y="2580" font-size="10" style="fill:blue">comentario</text><path d="M1100 2590 C1120 2590 1100 2590 1120 2590" style="fill:transparent;stroke:black" /><text x="1130" y="2590" font-size="8" style="fill:black">valor: Juega muy bien al futbol</text><rect x="900" y="2670" width="200" height="40" style="fill:white;stroke:black;stroke-width:1" /><text x="910" y="2680" font-size="10" style="fill:blue">amigos</text><path d="M880 2290 C900 2290 880 2690 900 2690" style="fill:transparent;stroke:black" /><rect x="1120" y="2670" width="200" height="40" style="fill:white;stroke:black;stroke-width:1" /><text x="1130" y="2680" font-size="10" style="fill:blue">persona</text><path d="M1100 2690 C1120 2690 1100 2690 1120 2690" style="fill:transparent;stroke:black" /><text x="1130" y="2690" font-size="8" style="fill:black">nombre: Liz</text><text x="1130" y="2700" font-size="8" style="fill:black">apellidos: Charles</text><rect x="1340" y="2670" width="200" height="40" style="fill:white;stroke:black;stroke-width:1" /><text x="1350" y="2680" font-size="10" style="fill:blue">nacimiento</text><path d="M1320 2690 C1340 2690 1320 2690 1340 2690" style="fill:transparent;stroke:black" /><text x="1350" y="2690" font-size="8" style="fill:black">fecha: 20/04/1992</text><text x="1350" y="2700" font-size="8" style="fill:black">lugar: Aviles</text><rect x="1560" y="2670" width="200" height="40" style="fill:white;stroke:black;stroke-width:1" /><text x="1570" y="2680" font-size="10" style="fill:blue">coordenadas</text><path d="M1540 2690 C1560 2690 1540 2690 1560 2690" style="fill:transparent;stroke:black" /><text x="1570" y="2690" font-size="8" style="fill:black">altitud: 2</text><text x="1570" y="2700" font-size="8" style="fill:black">latitud: 43.55940487852019</text><text x="1570" y="2710" font-size="8" style="fill:black">longitud: -5.923857470041392</text><rect x="1340" y="2770" width="200" height="40" style="fill:white;stroke:black;stroke-width:1" /><text x="1350" y="2780" font-size="10" style="fill:blue">residencia</text><path d="M1320 2690 C1340 2690 1320 2790 1340 2790" style="fill:transparent;stroke:black" /><text x="1350" y="2790" font-size="8" style="fill:black">lugar: A coruna</text><rect x="1560" y="2770" width="200" height="40" style="fill:white;stroke:black;stroke-width:1" /><text x="1570" y="2780" font-size="10" style="fill:blue">coordenadas</text><path d="M1540 2790 C1560 2790 1540 2790 1560 2790" style="fill:transparent;stroke:black" /><text x="1570" y="2790" font-size="8" style="fill:black">altitud: 26</text><text x="1570" y="2800" font-size="8" style="fill:black">latitud: 43.368342209026466</text><text x="1570" y="2810" font-size="8" style="fill:black">longitud: -8.409596135871102</text><rect x="1340" y="2870" width="200" height="40" style="fill:white;stroke:black;stroke-width:1" /><text x="1350" y="2880" font-size="10" style="fill:blue">fotografias</text><path d="M1320 2690 C1340 2690 1320 2890 1340 2890" style="fill:transparent;stroke:black" /><rect x="1560" y="2870" width="200" height="40" style="fill:white;stroke:black;stroke-width:1" /><text x="1570" y="2880" font-size="10" style="fill:blue">fotografia</text><path d="M1540 2890 C1560 2890 1540 2890 1560 2890" style="fill:transparent;stroke:black" /><text x="1570" y="2890" font-size="8" style="fill:black">path: img/f7.jpg</text><rect x="1340" y="2970" width="200" height="40" style="fill:white;stroke:black;stroke-width:1" /><text x="1350" y="2980" font-size="10" style="fill:blue">comentarios</text><path d="M1320 2690 C1340 2690 1320 2990 1340 2990" style="fill:transparent;stroke:black" /><rect x="1560" y="2970" width="200" height="40" style="fill:white;stroke:black;stroke-width:1" /><text x="1570" y="2980" font-size="10" style="fill:blue">comentario</text><path d="M1540 2990 C1560 2990 1540 2990 1560 2990" style="fill:transparent;stroke:black" /><text x="1570" y="2990" font-size="8" style="fill:black">valor: Le gusta mucho bailar</text><rect x="1120" y="3120" width="200" height="40" style="fill:white;stroke:black;stroke-width:1" /><text x="1130" y="3130" font-size="10" style="fill:blue">persona</text><path d="M1100 2690 C1120 2690 1100 3140 1120 3140" style="fill:transparent;stroke:black" /><text x="1130" y="3140" font-size="8" style="fill:black">nombre: Booker</text><text x="1130" y="3150" font-size="8" style="fill:black">apellidos: Dawson</text><rect x="1340" y="3120" width="200" height="40" style="fill:white;stroke:black;stroke-width:1" /><text x="1350" y="3130" font-size="10" style="fill:blue">nacimiento</text><path d="M1320 3140 C1340 3140 1320 3140 1340 3140" style="fill:transparent;stroke:black" /><text x="1350" y="3140" font-size="8" style="fill:black">fecha: 01/08/1994</text><text x="1350" y="3150" font-size="8" style="fill:black">lugar: Candas</text><rect x="1560" y="3120" width="200" height="40" style="fill:white;stroke:black;stroke-width:1" /><text x="1570" y="3130" font-size="10" style="fill:blue">coordenadas</text><path d="M1540 3140 C1560 3140 1540 3140 1560 3140" style="fill:transparent;stroke:black" /><text x="1570" y="3140" font-size="8" style="fill:black">altitud: 51</text><text x="1570" y="3150" font-size="8" style="fill:black">latitud: 43.59032425126038</text><text x="1570" y="3160" font-size="8" style="fill:black">longitud: -5.767211364172307</text><rect x="1340" y="3220" width="200" height="40" style="fill:white;stroke:black;stroke-width:1" /><text x="1350" y="3230" font-size="10" style="fill:blue">residencia</text><path d="M1320 3140 C1340 3140 1320 3240 1340 3240" style="fill:transparent;stroke:black" /><text x="1350" y="3240" font-size="8" style="fill:black">lugar: A coruna</text><rect x="1560" y="3220" width="200" height="40" style="fill:white;stroke:black;stroke-width:1" /><text x="1570" y="3230" font-size="10" style="fill:blue">coordenadas</text><path d="M1540 3240 C1560 3240 1540 3240 1560 3240" style="fill:transparent;stroke:black" /><text x="1570" y="3240" font-size="8" style="fill:black">altitud: 26</text><text x="1570" y="3250" font-size="8" style="fill:black">latitud: 43.368342209026466</text><text x="1570" y="3260" font-size="8" style="fill:black">longitud: -8.409596135871102</text><rect x="1340" y="3320" width="200" height="40" style="fill:white;stroke:black;stroke-width:1" /><text x="1350" y="3330" font-size="10" style="fill:blue">fotografias</text><path d="M1320 3140 C1340 3140 1320 3340 1340 3340" style="fill:transparent;stroke:black" /><rect x="1560" y="3320" width="200" height="40" style="fill:white;stroke:black;stroke-width:1" /><text x="1570" y="3330" font-size="10" style="fill:blue">fotografia</text><path d="M1540 3340 C1560 3340 1540 3340 1560 3340" style="fill:transparent;stroke:black" /><text x="1570" y="3340" font-size="8" style="fill:black">path: img/f8.jpg</text><rect x="1340" y="3420" width="200" height="40" style="fill:white;stroke:black;stroke-width:1" /><text x="1350" y="3430" font-size="10" style="fill:blue">comentarios</text><path d="M1320 3140 C1340 3140 1320 3440 1340 3440" style="fill:transparent;stroke:black" /><rect x="1560" y="3420" width="200" height="40" style="fill:white;stroke:black;stroke-width:1" /><text x="1570" y="3430" font-size="10" style="fill:blue">comentario</text><path d="M1540 3440 C1560 3440 1540 3440 1560 3440" style="fill:transparent;stroke:black" /><text x="1570" y="3440" font-size="8" style="fill:black">valor: Fan del madrid</text><rect x="1120" y="3570" width="200" height="40" style="fill:white;stroke:black;stroke-width:1" /><text x="1130" y="3580" font-size="10" style="fill:blue">persona</text><path d="M1100 2690 C1120 2690 1100 3590 1120 3590" style="fill:transparent;stroke:black" /><text x="1130" y="3590" font-size="8" style="fill:black">nombre: Wanda</text><text x="1130" y="3600" font-size="8" style="fill:black">apellidos: Bennett</text><rect x="1340" y="3570" width="200" height="40" style="fill:white;stroke:black;stroke-width:1" /><text x="1350" y="3580" font-size="10" style="fill:blue">nacimiento</text><path d="M1320 3590 C1340 3590 1320 3590 1340 3590" style="fill:transparent;stroke:black" /><text x="1350" y="3590" font-size="8" style="fill:black">fecha: 02/07/1998</text><text x="1350" y="3600" font-size="8" style="fill:black">lugar: Sevilla</text><rect x="1560" y="3570" width="200" height="40" style="fill:white;stroke:black;stroke-width:1" /><text x="1570" y="3580" font-size="10" style="fill:blue">coordenadas</text><path d="M1540 3590 C1560 3590 1540 3590 1560 3590" style="fill:transparent;stroke:black" /><text x="1570" y="3590" font-size="8" style="fill:black">altitud: 6</text><text x="1570" y="3600" font-size="8" style="fill:black">latitud: 37.392536442706486</text><text x="1570" y="3610" font-size="8" style="fill:black">longitud: -5.983213245168238</text><rect x="1340" y="3670" width="200" height="40" style="fill:white;stroke:black;stroke-width:1" /><text x="1350" y="3680" font-size="10" style="fill:blue">residencia</text><path d="M1320 3590 C1340 3590 1320 3690 1340 3690" style="fill:transparent;stroke:black" /><text x="1350" y="3690" font-size="8" style="fill:black">lugar: A coruna</text><rect x="1560" y="3670" width="200" height="40" style="fill:white;stroke:black;stroke-width:1" /><text x="1570" y="3680" font-size="10" style="fill:blue">coordenadas</text><path d="M1540 3690 C1560 3690 1540 3690 1560 3690" style="fill:transparent;stroke:black" /><text x="1570" y="3690" font-size="8" style="fill:black">altitud: 26</text><text x="1570" y="3700" font-size="8" style="fill:black">latitud: 43.368342209026466</text><text x="1570" y="3710" font-size="8" style="fill:black">longitud: -8.409596135871102</text><rect x="1340" y="3770" width="200" height="40" style="fill:white;stroke:black;stroke-width:1" /><text x="1350" y="3780" font-size="10" style="fill:blue">fotografias</text><path d="M1320 3590 C1340 3590 1320 3790 1340 3790" style="fill:transparent;stroke:black" /><rect x="1560" y="3770" width="200" height="40" style="fill:white;stroke:black;stroke-width:1" /><text x="1570" y="3780" font-size="10" style="fill:blue">fotografia</text><path d="M1540 3790 C1560 3790 1540 3790 1560 3790" style="fill:transparent;stroke:black" /><text x="1570" y="3790" font-size="8" style="fill:black">path: img/f9.jpg</text><rect x="1340" y="3870" width="200" height="40" style="fill:white;stroke:black;stroke-width:1" /><text x="1350" y="3880" font-size="10" style="fill:blue">comentarios</text><path d="M1320 3590 C1340 3590 1320 3890 1340 3890" style="fill:transparent;stroke:black" /><rect x="1560" y="3870" width="200" height="40" style="fill:white;stroke:black;stroke-width:1" /><text x="1570" y="3880" font-size="10" style="fill:blue">comentario</text><path d="M1540 3890 C1560 3890 1540 3890 1560 3890" style="fill:transparent;stroke:black" /><text x="1570" y="3890" font-size="8" style="fill:black">valor: Fan del atletico de madrid</text><rect x="680" y="4120" width="200" height="40" style="fill:white;stroke:black;stroke-width:1" /><text x="690" y="4130" font-size="10" style="fill:blue">persona</text><path d="M660 440 C680 440 660 4140 680 4140" style="fill:transparent;stroke:black" /><text x="690" y="4140" font-size="8" style="fill:black">nombre: Rory</text><text x="690" y="4150" font-size="8" style="fill:black">apellidos: Zhang</text><rect x="900" y="4120" width="200" height="40" style="fill:white;stroke:black;stroke-width:1" /><text x="910" y="4130" font-size="10" style="fill:blue">nacimiento</text><path d="M880 4140 C900 4140 880 4140 900 4140" style="fill:transparent;stroke:black" /><text x="910" y="4140" font-size="8" style="fill:black">fecha: 20/03/2008</text><text x="910" y="4150" font-size="8" style="fill:black">lugar: Madrid</text><rect x="1120" y="4120" width="200" height="40" style="fill:white;stroke:black;stroke-width:1" /><text x="1130" y="4130" font-size="10" style="fill:blue">coordenadas</text><path d="M1100 4140 C1120 4140 1100 4140 1120 4140" style="fill:transparent;stroke:black" /><text x="1130" y="4140" font-size="8" style="fill:black">altitud: 669</text><text x="1130" y="4150" font-size="8" style="fill:black">latitud: 40.43055280114602</text><text x="1130" y="4160" font-size="8" style="fill:black">longitud: -3.707012187865398</text><rect x="900" y="4220" width="200" height="40" style="fill:white;stroke:black;stroke-width:1" /><text x="910" y="4230" font-size="10" style="fill:blue">residencia</text><path d="M880 4140 C900 4140 880 4240 900 4240" style="fill:transparent;stroke:black" /><text x="910" y="4240" font-size="8" style="fill:black">lugar: A coruna</text><rect x="1120" y="4220" width="200" height="40" style="fill:white;stroke:black;stroke-width:1" /><text x="1130" y="4230" font-size="10" style="fill:blue">coordenadas</text><path d="M1100 4240 C1120 4240 1100 4240 1120 4240" style="fill:transparent;stroke:black" /><text x="1130" y="4240" font-size="8" style="fill:black">altitud: 26</text><text x="1130" y="4250" font-size="8" style="fill:black">latitud: 43.368342209026466</text><text x="1130" y="4260" font-size="8" style="fill:black">longitud: -8.409596135871102</text><rect x="900" y="4320" width="200" height="40" style="fill:white;stroke:black;stroke-width:1" /><text x="910" y="4330" font-size="10" style="fill:blue">fotografias</text><path d="M880 4140 C900 4140 880 4340 900 4340" style="fill:transparent;stroke:black" /><rect x="1120" y="4320" width="200" height="40" style="fill:white;stroke:black;stroke-width:1" /><text x="1130" y="4330" font-size="10" style="fill:blue">fotografia</text><path d="M1100 4340 C1120 4340 1100 4340 1120 4340" style="fill:transparent;stroke:black" /><text x="1130" y="4340" font-size="8" style="fill:black">path: img/f10.jpg</text><rect x="900" y="4420" width="200" height="40" style="fill:white;stroke:black;stroke-width:1" /><text x="910" y="4430" font-size="10" style="fill:blue">comentarios</text><path d="M880 4140 C900 4140 880 4440 900 4440" style="fill:transparent;stroke:black" /><rect x="1120" y="4420" width="200" height="40" style="fill:white;stroke:black;stroke-width:1" /><text x="1130" y="4430" font-size="10" style="fill:blue">comentario</text><path d="M1100 4440 C1120 4440 1100 4440 1120 4440" style="fill:transparent;stroke:black" /><text x="1130" y="4440" font-size="8" style="fill:black">valor: Habla 5 idiomas</text><rect x="900" y="4520" width="200" height="40" style="fill:white;stroke:black;stroke-width:1" /><text x="910" y="4530" font-size="10" style="fill:blue">amigos</text><path d="M880 4140 C900 4140 880 4540 900 4540" style="fill:transparent;stroke:black" /><rect x="1120" y="4520" width="200" height="40" style="fill:white;stroke:black;stroke-width:1" /><text x="1130" y="4530" font-size="10" style="fill:blue">persona</text><path d="M1100 4540 C1120 4540 1100 4540 1120 4540" style="fill:transparent;stroke:black" /><text x="1130" y="4540" font-size="8" style="fill:black">nombre: Jayne</text><text x="1130" y="4550" font-size="8" style="fill:black">apellidos: Hunt</text><rect x="1340" y="4520" width="200" height="40" style="fill:white;stroke:black;stroke-width:1" /><text x="1350" y="4530" font-size="10" style="fill:blue">nacimiento</text><path d="M1320 4540 C1340 4540 1320 4540 1340 4540" style="fill:transparent;stroke:black" /><text x="1350" y="4540" font-size="8" style="fill:black">fecha: 17/12/2013</text><text x="1350" y="4550" font-size="8" style="fill:black">lugar: Barcelona</text><rect x="1560" y="4520" width="200" height="40" style="fill:white;stroke:black;stroke-width:1" /><text x="1570" y="4530" font-size="10" style="fill:blue">coordenadas</text><path d="M1540 4540 C1560 4540 1540 4540 1560 4540" style="fill:transparent;stroke:black" /><text x="1570" y="4540" font-size="8" style="fill:black">altitud: 731</text><text x="1570" y="4550" font-size="8" style="fill:black">latitud: 41.37976747685414</text><text x="1570" y="4560" font-size="8" style="fill:black">longitud: 2.1089443268284307</text><rect x="1340" y="4620" width="200" height="40" style="fill:white;stroke:black;stroke-width:1" /><text x="1350" y="4630" font-size="10" style="fill:blue">residencia</text><path d="M1320 4540 C1340 4540 1320 4640 1340 4640" style="fill:transparent;stroke:black" /><text x="1350" y="4640" font-size="8" style="fill:black">lugar: A coruna</text><rect x="1560" y="4620" width="200" height="40" style="fill:white;stroke:black;stroke-width:1" /><text x="1570" y="4630" font-size="10" style="fill:blue">coordenadas</text><path d="M1540 4640 C1560 4640 1540 4640 1560 4640" style="fill:transparent;stroke:black" /><text x="1570" y="4640" font-size="8" style="fill:black">altitud: 26</text><text x="1570" y="4650" font-size="8" style="fill:black">latitud: 43.368342209026466</text><text x="1570" y="4660" font-size="8" style="fill:black">longitud: -8.409596135871102</text><rect x="1340" y="4720" width="200" height="40" style="fill:white;stroke:black;stroke-width:1" /><text x="1350" y="4730" font-size="10" style="fill:blue">fotografias</text><path d="M1320 4540 C1340 4540 1320 4740 1340 4740" style="fill:transparent;stroke:black" /><rect x="1560" y="4720" width="200" height="40" style="fill:white;stroke:black;stroke-width:1" /><text x="1570" y="4730" font-size="10" style="fill:blue">fotografia</text><path d="M1540 4740 C1560 4740 1540 4740 1560 4740" style="fill:transparent;stroke:black" /><text x="1570" y="4740" font-size="8" style="fill:black">path: img/f11.jpg</text><rect x="1340" y="4820" width="200" height="40" style="fill:white;stroke:black;stroke-width:1" /><text x="1350" y="4830" font-size="10" style="fill:blue">comentarios</text><path d="M1320 4540 C1340 4540 1320 4840 1340 4840" style="fill:transparent;stroke:black" /><rect x="1560" y="4820" width="200" height="40" style="fill:white;stroke:black;stroke-width:1" /><text x="1570" y="4830" font-size="10" style="fill:blue">comentario</text><path d="M1540 4840 C1560 4840 1540 4840 1560 4840" style="fill:transparent;stroke:black" /><text x="1570" y="4840" font-size="8" style="fill:black">valor: Juega al Lol</text><rect x="1120" y="4970" width="200" height="40" style="fill:white;stroke:black;stroke-width:1" /><text x="1130" y="4980" font-size="10" style="fill:blue">persona</text><path d="M1100 4540 C1120 4540 1100 4990 1120 4990" style="fill:transparent;stroke:black" /><text x="1130" y="4990" font-size="8" style="fill:black">nombre: Polly</text><text x="1130" y="5000" font-size="8" style="fill:black">apellidos: Waller</text><rect x="1340" y="4970" width="200" height="40" style="fill:white;stroke:black;stroke-width:1" /><text x="1350" y="4980" font-size="10" style="fill:blue">nacimiento</text><path d="M1320 4990 C1340 4990 1320 4990 1340 4990" style="fill:transparent;stroke:black" /><text x="1350" y="4990" font-size="8" style="fill:black">fecha: 20/05/2015</text><text x="1350" y="5000" font-size="8" style="fill:black">lugar: Valencia</text><rect x="1560" y="4970" width="200" height="40" style="fill:white;stroke:black;stroke-width:1" /><text x="1570" y="4980" font-size="10" style="fill:blue">coordenadas</text><path d="M1540 4990 C1560 4990 1540 4990 1560 4990" style="fill:transparent;stroke:black" /><text x="1570" y="4990" font-size="8" style="fill:black">altitud: 6</text><text x="1570" y="5000" font-size="8" style="fill:black">latitud: 39.48299660008014</text><text x="1570" y="5010" font-size="8" style="fill:black">longitud: -0.3752540631832583</text><rect x="1340" y="5070" width="200" height="40" style="fill:white;stroke:black;stroke-width:1" /><text x="1350" y="5080" font-size="10" style="fill:blue">residencia</text><path d="M1320 4990 C1340 4990 1320 5090 1340 5090" style="fill:transparent;stroke:black" /><text x="1350" y="5090" font-size="8" style="fill:black">lugar: A coruna</text><rect x="1560" y="5070" width="200" height="40" style="fill:white;stroke:black;stroke-width:1" /><text x="1570" y="5080" font-size="10" style="fill:blue">coordenadas</text><path d="M1540 5090 C1560 5090 1540 5090 1560 5090" style="fill:transparent;stroke:black" /><text x="1570" y="5090" font-size="8" style="fill:black">altitud: 26</text><text x="1570" y="5100" font-size="8" style="fill:black">latitud: 43.368342209026466</text><text x="1570" y="5110" font-size="8" style="fill:black">longitud: -8.409596135871102</text><rect x="1340" y="5170" width="200" height="40" style="fill:white;stroke:black;stroke-width:1" /><text x="1350" y="5180" font-size="10" style="fill:blue">fotografias</text><path d="M1320 4990 C1340 4990 1320 5190 1340 5190" style="fill:transparent;stroke:black" /><rect x="1560" y="5170" width="200" height="40" style="fill:white;stroke:black;stroke-width:1" /><text x="1570" y="5180" font-size="10" style="fill:blue">fotografia</text><path d="M1540 5190 C1560 5190 1540 5190 1560 5190" style="fill:transparent;stroke:black" /><text x="1570" y="5190" font-size="8" style="fill:black">path: img/f12.jpg</text><rect x="1340" y="5270" width="200" height="40" style="fill:white;stroke:black;stroke-width:1" /><text x="1350" y="5280" font-size="10" style="fill:blue">comentarios</text><path d="M1320 4990 C1340 4990 1320 5290 1340 5290" style="fill:transparent;stroke:black" /><rect x="1560" y="5270" width="200" height="40" style="fill:white;stroke:black;stroke-width:1" /><text x="1570" y="5280" font-size="10" style="fill:blue">comentario</text><path d="M1540 5290 C1560 5290 1540 5290 1560 5290" style="fill:transparent;stroke:black" /><text x="1570" y="5290" font-size="8" style="fill:black">valor: No juega al lol</text><rect x="1120" y="5420" width="200" height="40" style="fill:white;stroke:black;stroke-width:1" /><text x="1130" y="5430" font-size="10" style="fill:blue">persona</text><path d="M1100 4540 C1120 4540 1100 5440 1120 5440" style="fill:transparent;stroke:black" /><text x="1130" y="5440" font-size="8" style="fill:black">nombre: Wilford</text><text x="1130" y="5450" font-size="8" style="fill:black">apellidos: Cameron</text><rect x="1340" y="5420" width="200" height="40" style="fill:white;stroke:black;stroke-width:1" /><text x="1350" y="5430" font-size="10" style="fill:blue">nacimiento</text><path d="M1320 5440 C1340 5440 1320 5440 1340 5440" style="fill:transparent;stroke:black" /><text x="1350" y="5440" font-size="8" style="fill:black">fecha: 12/02/2016</text><text x="1350" y="5450" font-size="8" style="fill:black">lugar: Jaen</text><rect x="1560" y="5420" width="200" height="40" style="fill:white;stroke:black;stroke-width:1" /><text x="1570" y="5430" font-size="10" style="fill:blue">coordenadas</text><path d="M1540 5440 C1560 5440 1540 5440 1560 5440" style="fill:transparent;stroke:black" /><text x="1570" y="5440" font-size="8" style="fill:black">altitud: 497</text><text x="1570" y="5450" font-size="8" style="fill:black">latitud: 37.779190851694956</text><text x="1570" y="5460" font-size="8" style="fill:black">longitud: -3.7847904126829364</text><rect x="1340" y="5520" width="200" height="40" style="fill:white;stroke:black;stroke-width:1" /><text x="1350" y="5530" font-size="10" style="fill:blue">residencia</text><path d="M1320 5440 C1340 5440 1320 5540 1340 5540" style="fill:transparent;stroke:black" /><text x="1350" y="5540" font-size="8" style="fill:black">lugar: A coruna</text><rect x="1560" y="5520" width="200" height="40" style="fill:white;stroke:black;stroke-width:1" /><text x="1570" y="5530" font-size="10" style="fill:blue">coordenadas</text><path d="M1540 5540 C1560 5540 1540 5540 1560 5540" style="fill:transparent;stroke:black" /><text x="1570" y="5540" font-size="8" style="fill:black">altitud: 26</text><text x="1570" y="5550" font-size="8" style="fill:black">latitud: 43.368342209026466</text><text x="1570" y="5560" font-size="8" style="fill:black">longitud: -8.409596135871102</text><rect x="1340" y="5620" width="200" height="40" style="fill:white;stroke:black;stroke-width:1" /><text x="1350" y="5630" font-size="10" style="fill:blue">fotografias</text><path d="M1320 5440 C1340 5440 1320 5640 1340 5640" style="fill:transparent;stroke:black" /><rect x="1560" y="5620" width="200" height="40" style="fill:white;stroke:black;stroke-width:1" /><text x="1570" y="5630" font-size="10" style="fill:blue">fotografia</text><path d="M1540 5640 C1560 5640 1540 5640 1560 5640" style="fill:transparent;stroke:black" /><text x="1570" y="5640" font-size="8" style="fill:black">path: img/f13.jpg</text><rect x="1340" y="5720" width="200" height="40" style="fill:white;stroke:black;stroke-width:1" /><text x="1350" y="5730" font-size="10" style="fill:blue">comentarios</text><path d="M1320 5440 C1340 5440 1320 5740 1340 5740" style="fill:transparent;stroke:black" /><rect x="1560" y="5720" width="200" height="40" style="fill:white;stroke:black;stroke-width:1" /><text x="1570" y="5730" font-size="10" style="fill:blue">comentario</text><path d="M1540 5740 C1560 5740 1540 5740 1560 5740" style="fill:transparent;stroke:black" /><text x="1570" y="5740" font-size="8" style="fill:black">valor: Basado</text></svg>