<?xml version="1.0" encoding="UTF-8"?>
<svg width="2000" height="2000" style="overflow:visible" version="1.1" xmlns="http://www.w3.org/2000/svg">
  <rect x="20" y="20" width="225" height="80" style="fill:white; stroke:black;stroke-width:1" />
  <text x="30" y="35" style="fill:blue">Persona</text>
  <text x="30" y="50" style="fill:black">Jesus Alonso Garcia</text>
  <text x="30" y="65" style="fill:black">De: Oviedo</text>
  <text x="30" y="80" style="fill:black">Nacimiento: 05/07/2000</text>
  <text x="30" y="95" style="fill:black">Vive en: San Sebastian</text>
  <rect x="275" y="20" width="225" height="80" style="fill:white; stroke:black;stroke-width:1" />
  <text x="285" y="35" style="fill:blue">Persona</text>
  <text x="285" y="50" style="fill:black">Earlene Aleks</text>
  <text x="285" y="65" style="fill:black">De: A coruna</text>
  <text x="285" y="80" style="fill:black">Nacimiento: 16/10/1950</text>
  <text x="285" y="95" style="fill:black">Vive en: Santiago de Compostela</text>
  <rect x="530" y="20" width="225" height="80" style="fill:white; stroke:black;stroke-width:1" />
  <text x="540" y="35" style="fill:blue">Persona</text>
  <text x="540" y="50" style="fill:black">Joanna Dominguez</text>
  <text x="540" y="65" style="fill:black">De: Leon</text>
  <text x="540" y="80" style="fill:black">Nacimiento: 24/12/1963</text>
  <text x="540" y="95" style="fill:black">Vive en: Valladolid</text>
  <line x1="500" y1="60.0" x2="530" y2="60.0" style="fill:transparent;stroke:black" />
  <rect x="530" y="120" width="225" height="80" style="fill:white; stroke:black;stroke-width:1" />
  <text x="540" y="135" style="fill:blue">Persona</text>
  <text x="540" y="150" style="fill:black">Marissa Montoya</text>
  <text x="540" y="165" style="fill:black">De: Bilbao</text>
  <text x="540" y="180" style="fill:black">Nacimiento: 18/08/1964</text>
  <text x="540" y="195" style="fill:black">Vive en: Salamanca</text>
  <line x1="500" y1="60.0" x2="530" y2="160.0" style="fill:transparent;stroke:black" />
  <rect x="530" y="220" width="225" height="80" style="fill:white; stroke:black;stroke-width:1" />
  <text x="540" y="235" style="fill:blue">Persona</text>
  <text x="540" y="250" style="fill:black">Valerie Larson</text>
  <text x="540" y="265" style="fill:black">De: Benidorm</text>
  <text x="540" y="280" style="fill:black">Nacimiento: 15/02/1984</text>
  <text x="540" y="295" style="fill:black">Vive en: Toledo</text>
  <line x1="500" y1="60.0" x2="530" y2="260.0" style="fill:transparent;stroke:black" />
  <line x1="245" y1="60.0" x2="275" y2="60.0" style="fill:transparent;stroke:black" />
  <rect x="275" y="320" width="225" height="80" style="fill:white; stroke:black;stroke-width:1" />
  <text x="285" y="335" style="fill:blue">Persona</text>
  <text x="285" y="350" style="fill:black">Bridget Cisneros</text>
  <text x="285" y="365" style="fill:black">De: Gijon</text>
  <text x="285" y="380" style="fill:black">Nacimiento: 25/03/1987</text>
  <text x="285" y="395" style="fill:black">Vive en: Badajoz</text>
  <rect x="530" y="320" width="225" height="80" style="fill:white; stroke:black;stroke-width:1" />
  <text x="540" y="335" style="fill:blue">Persona</text>
  <text x="540" y="350" style="fill:black">Liz Charles</text>
  <text x="540" y="365" style="fill:black">De: Aviles</text>
  <text x="540" y="380" style="fill:black">Nacimiento: 20/04/1992</text>
  <text x="540" y="395" style="fill:black">Vive en: Pamplona</text>
  <line x1="500" y1="360.0" x2="530" y2="360.0" style="fill:transparent;stroke:black" />
  <rect x="530" y="420" width="225" height="80" style="fill:white; stroke:black;stroke-width:1" />
  <text x="540" y="435" style="fill:blue">Persona</text>
  <text x="540" y="450" style="fill:black">Booker Dawson</text>
  <text x="540" y="465" style="fill:black">De: Candas</text>
  <text x="540" y="480" style="fill:black">Nacimiento: 01/08/1994</text>
  <text x="540" y="495" style="fill:black">Vive en: Tarragona</text>
  <line x1="500" y1="360.0" x2="530" y2="460.0" style="fill:transparent;stroke:black" />
  <rect x="530" y="520" width="225" height="80" style="fill:white; stroke:black;stroke-width:1" />
  <text x="540" y="535" style="fill:blue">Persona</text>
  <text x="540" y="550" style="fill:black">Wanda Bennett</text>
  <text x="540" y="565" style="fill:black">De: Sevilla</text>
  <text x="540" y="580" style="fill:black">Nacimiento: 02/07/1998</text>
  <text x="540" y="595" style="fill:black">Vive en: Palma</text>
  <line x1="500" y1="360.0" x2="530" y2="560.0" style="fill:transparent;stroke:black" />
  <line x1="245" y1="60.0" x2="275" y2="360.0" style="fill:transparent;stroke:black" />
  <rect x="275" y="620" width="225" height="80" style="fill:white; stroke:black;stroke-width:1" />
  <text x="285" y="635" style="fill:blue">Persona</text>
  <text x="285" y="650" style="fill:black">Rory Zhang</text>
  <text x="285" y="665" style="fill:black">De: Madrid</text>
  <text x="285" y="680" style="fill:black">Nacimiento: 20/03/2008</text>
  <text x="285" y="695" style="fill:black">Vive en: Ibiza</text>
  <rect x="530" y="620" width="225" height="80" style="fill:white; stroke:black;stroke-width:1" />
  <text x="540" y="635" style="fill:blue">Persona</text>
  <text x="540" y="650" style="fill:black">Jayne Hunt</text>
  <text x="540" y="665" style="fill:black">De: Barcelona</text>
  <text x="540" y="680" style="fill:black">Nacimiento: 17/12/2013</text>
  <text x="540" y="695" style="fill:black">Vive en: Almeria</text>
  <line x1="500" y1="660.0" x2="530" y2="660.0" style="fill:transparent;stroke:black" />
  <rect x="530" y="720" width="225" height="80" style="fill:white; stroke:black;stroke-width:1" />
  <text x="540" y="735" style="fill:blue">Persona</text>
  <text x="540" y="750" style="fill:black">Polly Waller</text>
  <text x="540" y="765" style="fill:black">De: Valencia</text>
  <text x="540" y="780" style="fill:black">Nacimiento: 20/05/2015</text>
  <text x="540" y="795" style="fill:black">Vive en: Lisboa</text>
  <line x1="500" y1="660.0" x2="530" y2="760.0" style="fill:transparent;stroke:black" />
  <rect x="530" y="820" width="225" height="80" style="fill:white; stroke:black;stroke-width:1" />
  <text x="540" y="835" style="fill:blue">Persona</text>
  <text x="540" y="850" style="fill:black">Wilford Cameron</text>
  <text x="540" y="865" style="fill:black">De: Jaen</text>
  <text x="540" y="880" style="fill:black">Nacimiento: 12/02/2016</text>
  <text x="540" y="895" style="fill:black">Vive en: Oporto</text>
  <line x1="500" y1="660.0" x2="530" y2="860.0" style="fill:transparent;stroke:black" />
  <line x1="245" y1="60.0" x2="275" y2="660.0" style="fill:transparent;stroke:black" />
</svg>