<?xml version="1.0" encoding="utf-8"?><svg width="auto" height="6070" style="overflow:visible " version="1.1" xmlns="http://www.w3.org/2000/svg"><rect x="20" y="20" width="200" height="40" style="fill:white;stroke:black;stroke-width:1" /><text x="30" y="30" font-size="10" style="fill:blue">persona</text><text x="30" y="40" font-size="8" style="fill:black">nombre: Jesús</text><text x="30" y="50" font-size="8" style="fill:black">apellidos: Alonso García</text><rect x="240" y="20" width="200" height="40" style="fill:white;stroke:black;stroke-width:1" /><text x="250" y="30" font-size="10" style="fill:blue">nacimiento</text><path d="M220 40 C240 40 220 40 240 40" style="fill:transparent;stroke:black" /><text x="250" y="40" font-size="8" style="fill:black">fecha: 05/07/2000</text><text x="250" y="50" font-size="8" style="fill:black">lugar: Oviedo</text><rect x="460" y="20" width="200" height="40" style="fill:white;stroke:black;stroke-width:1" /><text x="470" y="30" font-size="10" style="fill:blue">coordenadas</text><path d="M440 40 C460 40 440 40 460 40" style="fill:transparent;stroke:black" /><text x="470" y="40" font-size="8" style="fill:black">altitud: </text><text x="470" y="50" font-size="8" style="fill:black">latitud: </text><text x="470" y="60" font-size="8" style="fill:black">longitud: </text><rect x="240" y="120" width="200" height="40" style="fill:white;stroke:black;stroke-width:1" /><text x="250" y="130" font-size="10" style="fill:blue">fotografias</text><path d="M220 40 C240 40 220 140 240 140" style="fill:transparent;stroke:black" /><rect x="460" y="120" width="200" height="40" style="fill:white;stroke:black;stroke-width:1" /><text x="470" y="130" font-size="10" style="fill:blue">fotografia</text><path d="M440 140 C460 140 440 140 460 140" style="fill:transparent;stroke:black" /><text x="470" y="140" font-size="8" style="fill:black">path: </text><rect x="240" y="220" width="200" height="40" style="fill:white;stroke:black;stroke-width:1" /><text x="250" y="230" font-size="10" style="fill:blue">videos</text><path d="M220 40 C240 40 220 240 240 240" style="fill:transparent;stroke:black" /><rect x="460" y="220" width="200" height="40" style="fill:white;stroke:black;stroke-width:1" /><text x="470" y="230" font-size="10" style="fill:blue">video</text><path d="M440 240 C460 240 440 240 460 240" style="fill:transparent;stroke:black" /><text x="470" y="240" font-size="8" style="fill:black">path: </text><rect x="240" y="320" width="200" height="40" style="fill:white;stroke:black;stroke-width:1" /><text x="250" y="330" font-size="10" style="fill:blue">comentarios</text><path d="M220 40 C240 40 220 340 240 340" style="fill:transparent;stroke:black" /><rect x="460" y="320" width="200" height="40" style="fill:white;stroke:black;stroke-width:1" /><text x="470" y="330" font-size="10" style="fill:blue">comentario</text><path d="M440 340 C460 340 440 340 460 340" style="fill:transparent;stroke:black" /><text x="470" y="340" font-size="8" style="fill:black">valor: Un maquina</text><rect x="240" y="420" width="200" height="40" style="fill:white;stroke:black;stroke-width:1" /><text x="250" y="430" font-size="10" style="fill:blue">amigos</text><path d="M220 40 C240 40 220 440 240 440" style="fill:transparent;stroke:black" /><rect x="460" y="420" width="200" height="40" style="fill:white;stroke:black;stroke-width:1" /><text x="470" y="430" font-size="10" style="fill:blue">persona</text><path d="M440 440 C460 440 440 440 460 440" style="fill:transparent;stroke:black" /><text x="470" y="440" font-size="8" style="fill:black">nombre: Earlene</text><text x="470" y="450" font-size="8" style="fill:black">apellidos: Aleks</text><rect x="680" y="420" width="200" height="40" style="fill:white;stroke:black;stroke-width:1" /><text x="690" y="430" font-size="10" style="fill:blue">nacimiento</text><path d="M660 440 C680 440 660 440 680 440" style="fill:transparent;stroke:black" /><text x="690" y="440" font-size="8" style="fill:black">fecha: 16/10/1950</text><text x="690" y="450" font-size="8" style="fill:black">lugar: A coruña</text><rect x="900" y="420" width="200" height="40" style="fill:white;stroke:black;stroke-width:1" /><text x="910" y="430" font-size="10" style="fill:blue">coordenadas</text><path d="M880 440 C900 440 880 440 900 440" style="fill:transparent;stroke:black" /><text x="910" y="440" font-size="8" style="fill:black">altitud: </text><text x="910" y="450" font-size="8" style="fill:black">latitud: </text><text x="910" y="460" font-size="8" style="fill:black">longitud: </text><rect x="680" y="520" width="200" height="40" style="fill:white;stroke:black;stroke-width:1" /><text x="690" y="530" font-size="10" style="fill:blue">fotografias</text><path d="M660 440 C680 440 660 540 680 540" style="fill:transparent;stroke:black" /><rect x="900" y="520" width="200" height="40" style="fill:white;stroke:black;stroke-width:1" /><text x="910" y="530" font-size="10" style="fill:blue">fotografia</text><path d="M880 540 C900 540 880 540 900 540" style="fill:transparent;stroke:black" /><text x="910" y="540" font-size="8" style="fill:black">path: </text><rect x="680" y="620" width="200" height="40" style="fill:white;stroke:black;stroke-width:1" /><text x="690" y="630" font-size="10" style="fill:blue">videos</text><path d="M660 440 C680 440 660 640 680 640" style="fill:transparent;stroke:black" /><rect x="900" y="620" width="200" height="40" style="fill:white;stroke:black;stroke-width:1" /><text x="910" y="630" font-size="10" style="fill:blue">video</text><path d="M880 640 C900 640 880 640 900 640" style="fill:transparent;stroke:black" /><text x="910" y="640" font-size="8" style="fill:black">path: </text><rect x="680" y="720" width="200" height="40" style="fill:white;stroke:black;stroke-width:1" /><text x="690" y="730" font-size="10" style="fill:blue">comentarios</text><path d="M660 440 C680 440 660 740 680 740" style="fill:transparent;stroke:black" /><rect x="900" y="720" width="200" height="40" style="fill:white;stroke:black;stroke-width:1" /><text x="910" y="730" font-size="10" style="fill:blue">comentario</text><path d="M880 740 C900 740 880 740 900 740" style="fill:transparent;stroke:black" /><text x="910" y="740" font-size="8" style="fill:black">valor: Un maquina</text><rect x="680" y="820" width="200" height="40" style="fill:white;stroke:black;stroke-width:1" /><text x="690" y="830" font-size="10" style="fill:blue">amigos</text><path d="M660 440 C680 440 660 840 680 840" style="fill:transparent;stroke:black" /><rect x="900" y="820" width="200" height="40" style="fill:white;stroke:black;stroke-width:1" /><text x="910" y="830" font-size="10" style="fill:blue">persona</text><path d="M880 840 C900 840 880 840 900 840" style="fill:transparent;stroke:black" /><text x="910" y="840" font-size="8" style="fill:black">nombre: Jesús</text><text x="910" y="850" font-size="8" style="fill:black">apellidos: Alonso García</text><rect x="1120" y="820" width="200" height="40" style="fill:white;stroke:black;stroke-width:1" /><text x="1130" y="830" font-size="10" style="fill:blue">nacimiento</text><path d="M1100 840 C1120 840 1100 840 1120 840" style="fill:transparent;stroke:black" /><text x="1130" y="840" font-size="8" style="fill:black">fecha: 24/12/1963</text><text x="1130" y="850" font-size="8" style="fill:black">lugar: Leon</text><rect x="1340" y="820" width="200" height="40" style="fill:white;stroke:black;stroke-width:1" /><text x="1350" y="830" font-size="10" style="fill:blue">coordenadas</text><path d="M1320 840 C1340 840 1320 840 1340 840" style="fill:transparent;stroke:black" /><text x="1350" y="840" font-size="8" style="fill:black">altitud: </text><text x="1350" y="850" font-size="8" style="fill:black">latitud: </text><text x="1350" y="860" font-size="8" style="fill:black">longitud: </text><rect x="1120" y="920" width="200" height="40" style="fill:white;stroke:black;stroke-width:1" /><text x="1130" y="930" font-size="10" style="fill:blue">fotografias</text><path d="M1100 840 C1120 840 1100 940 1120 940" style="fill:transparent;stroke:black" /><rect x="1340" y="920" width="200" height="40" style="fill:white;stroke:black;stroke-width:1" /><text x="1350" y="930" font-size="10" style="fill:blue">fotografia</text><path d="M1320 940 C1340 940 1320 940 1340 940" style="fill:transparent;stroke:black" /><text x="1350" y="940" font-size="8" style="fill:black">path: </text><rect x="1120" y="1020" width="200" height="40" style="fill:white;stroke:black;stroke-width:1" /><text x="1130" y="1030" font-size="10" style="fill:blue">videos</text><path d="M1100 840 C1120 840 1100 1040 1120 1040" style="fill:transparent;stroke:black" /><rect x="1340" y="1020" width="200" height="40" style="fill:white;stroke:black;stroke-width:1" /><text x="1350" y="1030" font-size="10" style="fill:blue">video</text><path d="M1320 1040 C1340 1040 1320 1040 1340 1040" style="fill:transparent;stroke:black" /><text x="1350" y="1040" font-size="8" style="fill:black">path: </text><rect x="1120" y="1120" width="200" height="40" style="fill:white;stroke:black;stroke-width:1" /><text x="1130" y="1130" font-size="10" style="fill:blue">comentarios</text><path d="M1100 840 C1120 840 1100 1140 1120 1140" style="fill:transparent;stroke:black" /><rect x="1340" y="1120" width="200" height="40" style="fill:white;stroke:black;stroke-width:1" /><text x="1350" y="1130" font-size="10" style="fill:blue">comentario</text><path d="M1320 1140 C1340 1140 1320 1140 1340 1140" style="fill:transparent;stroke:black" /><text x="1350" y="1140" font-size="8" style="fill:black">valor: Un maquina</text><rect x="900" y="1270" width="200" height="40" style="fill:white;stroke:black;stroke-width:1" /><text x="910" y="1280" font-size="10" style="fill:blue">persona</text><path d="M880 840 C900 840 880 1290 900 1290" style="fill:transparent;stroke:black" /><text x="910" y="1290" font-size="8" style="fill:black">nombre: Jesús</text><text x="910" y="1300" font-size="8" style="fill:black">apellidos: Alonso García</text><rect x="1120" y="1270" width="200" height="40" style="fill:white;stroke:black;stroke-width:1" /><text x="1130" y="1280" font-size="10" style="fill:blue">nacimiento</text><path d="M1100 1290 C1120 1290 1100 1290 1120 1290" style="fill:transparent;stroke:black" /><text x="1130" y="1290" font-size="8" style="fill:black">fecha: 18/08/1964</text><text x="1130" y="1300" font-size="8" style="fill:black">lugar: Bilbao</text><rect x="1340" y="1270" width="200" height="40" style="fill:white;stroke:black;stroke-width:1" /><text x="1350" y="1280" font-size="10" style="fill:blue">coordenadas</text><path d="M1320 1290 C1340 1290 1320 1290 1340 1290" style="fill:transparent;stroke:black" /><text x="1350" y="1290" font-size="8" style="fill:black">altitud: </text><text x="1350" y="1300" font-size="8" style="fill:black">latitud: </text><text x="1350" y="1310" font-size="8" style="fill:black">longitud: </text><rect x="1120" y="1370" width="200" height="40" style="fill:white;stroke:black;stroke-width:1" /><text x="1130" y="1380" font-size="10" style="fill:blue">fotografias</text><path d="M1100 1290 C1120 1290 1100 1390 1120 1390" style="fill:transparent;stroke:black" /><rect x="1340" y="1370" width="200" height="40" style="fill:white;stroke:black;stroke-width:1" /><text x="1350" y="1380" font-size="10" style="fill:blue">fotografia</text><path d="M1320 1390 C1340 1390 1320 1390 1340 1390" style="fill:transparent;stroke:black" /><text x="1350" y="1390" font-size="8" style="fill:black">path: </text><rect x="1120" y="1470" width="200" height="40" style="fill:white;stroke:black;stroke-width:1" /><text x="1130" y="1480" font-size="10" style="fill:blue">videos</text><path d="M1100 1290 C1120 1290 1100 1490 1120 1490" style="fill:transparent;stroke:black" /><rect x="1340" y="1470" width="200" height="40" style="fill:white;stroke:black;stroke-width:1" /><text x="1350" y="1480" font-size="10" style="fill:blue">video</text><path d="M1320 1490 C1340 1490 1320 1490 1340 1490" style="fill:transparent;stroke:black" /><text x="1350" y="1490" font-size="8" style="fill:black">path: </text><rect x="1120" y="1570" width="200" height="40" style="fill:white;stroke:black;stroke-width:1" /><text x="1130" y="1580" font-size="10" style="fill:blue">comentarios</text><path d="M1100 1290 C1120 1290 1100 1590 1120 1590" style="fill:transparent;stroke:black" /><rect x="1340" y="1570" width="200" height="40" style="fill:white;stroke:black;stroke-width:1" /><text x="1350" y="1580" font-size="10" style="fill:blue">comentario</text><path d="M1320 1590 C1340 1590 1320 1590 1340 1590" style="fill:transparent;stroke:black" /><text x="1350" y="1590" font-size="8" style="fill:black">valor: Un maquina</text><rect x="900" y="1720" width="200" height="40" style="fill:white;stroke:black;stroke-width:1" /><text x="910" y="1730" font-size="10" style="fill:blue">persona</text><path d="M880 840 C900 840 880 1740 900 1740" style="fill:transparent;stroke:black" /><text x="910" y="1740" font-size="8" style="fill:black">nombre: Jesús</text><text x="910" y="1750" font-size="8" style="fill:black">apellidos: Alonso García</text><rect x="1120" y="1720" width="200" height="40" style="fill:white;stroke:black;stroke-width:1" /><text x="1130" y="1730" font-size="10" style="fill:blue">nacimiento</text><path d="M1100 1740 C1120 1740 1100 1740 1120 1740" style="fill:transparent;stroke:black" /><text x="1130" y="1740" font-size="8" style="fill:black">fecha: 15/02/1984</text><text x="1130" y="1750" font-size="8" style="fill:black">lugar: Benidorm</text><rect x="1340" y="1720" width="200" height="40" style="fill:white;stroke:black;stroke-width:1" /><text x="1350" y="1730" font-size="10" style="fill:blue">coordenadas</text><path d="M1320 1740 C1340 1740 1320 1740 1340 1740" style="fill:transparent;stroke:black" /><text x="1350" y="1740" font-size="8" style="fill:black">altitud: </text><text x="1350" y="1750" font-size="8" style="fill:black">latitud: </text><text x="1350" y="1760" font-size="8" style="fill:black">longitud: </text><rect x="1120" y="1820" width="200" height="40" style="fill:white;stroke:black;stroke-width:1" /><text x="1130" y="1830" font-size="10" style="fill:blue">fotografias</text><path d="M1100 1740 C1120 1740 1100 1840 1120 1840" style="fill:transparent;stroke:black" /><rect x="1340" y="1820" width="200" height="40" style="fill:white;stroke:black;stroke-width:1" /><text x="1350" y="1830" font-size="10" style="fill:blue">fotografia</text><path d="M1320 1840 C1340 1840 1320 1840 1340 1840" style="fill:transparent;stroke:black" /><text x="1350" y="1840" font-size="8" style="fill:black">path: </text><rect x="1120" y="1920" width="200" height="40" style="fill:white;stroke:black;stroke-width:1" /><text x="1130" y="1930" font-size="10" style="fill:blue">videos</text><path d="M1100 1740 C1120 1740 1100 1940 1120 1940" style="fill:transparent;stroke:black" /><rect x="1340" y="1920" width="200" height="40" style="fill:white;stroke:black;stroke-width:1" /><text x="1350" y="1930" font-size="10" style="fill:blue">video</text><path d="M1320 1940 C1340 1940 1320 1940 1340 1940" style="fill:transparent;stroke:black" /><text x="1350" y="1940" font-size="8" style="fill:black">path: </text><rect x="1120" y="2020" width="200" height="40" style="fill:white;stroke:black;stroke-width:1" /><text x="1130" y="2030" font-size="10" style="fill:blue">comentarios</text><path d="M1100 1740 C1120 1740 1100 2040 1120 2040" style="fill:transparent;stroke:black" /><rect x="1340" y="2020" width="200" height="40" style="fill:white;stroke:black;stroke-width:1" /><text x="1350" y="2030" font-size="10" style="fill:blue">comentario</text><path d="M1320 2040 C1340 2040 1320 2040 1340 2040" style="fill:transparent;stroke:black" /><text x="1350" y="2040" font-size="8" style="fill:black">valor: Un maquina</text><rect x="460" y="2270" width="200" height="40" style="fill:white;stroke:black;stroke-width:1" /><text x="470" y="2280" font-size="10" style="fill:blue">persona</text><path d="M440 440 C460 440 440 2290 460 2290" style="fill:transparent;stroke:black" /><text x="470" y="2290" font-size="8" style="fill:black">nombre: Jesús</text><text x="470" y="2300" font-size="8" style="fill:black">apellidos: Alonso García</text><rect x="680" y="2270" width="200" height="40" style="fill:white;stroke:black;stroke-width:1" /><text x="690" y="2280" font-size="10" style="fill:blue">nacimiento</text><path d="M660 2290 C680 2290 660 2290 680 2290" style="fill:transparent;stroke:black" /><text x="690" y="2290" font-size="8" style="fill:black">fecha: 25/03/1987</text><text x="690" y="2300" font-size="8" style="fill:black">lugar: Gijon</text><rect x="900" y="2270" width="200" height="40" style="fill:white;stroke:black;stroke-width:1" /><text x="910" y="2280" font-size="10" style="fill:blue">coordenadas</text><path d="M880 2290 C900 2290 880 2290 900 2290" style="fill:transparent;stroke:black" /><text x="910" y="2290" font-size="8" style="fill:black">altitud: </text><text x="910" y="2300" font-size="8" style="fill:black">latitud: </text><text x="910" y="2310" font-size="8" style="fill:black">longitud: </text><rect x="680" y="2370" width="200" height="40" style="fill:white;stroke:black;stroke-width:1" /><text x="690" y="2380" font-size="10" style="fill:blue">fotografias</text><path d="M660 2290 C680 2290 660 2390 680 2390" style="fill:transparent;stroke:black" /><rect x="900" y="2370" width="200" height="40" style="fill:white;stroke:black;stroke-width:1" /><text x="910" y="2380" font-size="10" style="fill:blue">fotografia</text><path d="M880 2390 C900 2390 880 2390 900 2390" style="fill:transparent;stroke:black" /><text x="910" y="2390" font-size="8" style="fill:black">path: </text><rect x="680" y="2470" width="200" height="40" style="fill:white;stroke:black;stroke-width:1" /><text x="690" y="2480" font-size="10" style="fill:blue">videos</text><path d="M660 2290 C680 2290 660 2490 680 2490" style="fill:transparent;stroke:black" /><rect x="900" y="2470" width="200" height="40" style="fill:white;stroke:black;stroke-width:1" /><text x="910" y="2480" font-size="10" style="fill:blue">video</text><path d="M880 2490 C900 2490 880 2490 900 2490" style="fill:transparent;stroke:black" /><text x="910" y="2490" font-size="8" style="fill:black">path: </text><rect x="680" y="2570" width="200" height="40" style="fill:white;stroke:black;stroke-width:1" /><text x="690" y="2580" font-size="10" style="fill:blue">comentarios</text><path d="M660 2290 C680 2290 660 2590 680 2590" style="fill:transparent;stroke:black" /><rect x="900" y="2570" width="200" height="40" style="fill:white;stroke:black;stroke-width:1" /><text x="910" y="2580" font-size="10" style="fill:blue">comentario</text><path d="M880 2590 C900 2590 880 2590 900 2590" style="fill:transparent;stroke:black" /><text x="910" y="2590" font-size="8" style="fill:black">valor: Un maquina</text><rect x="680" y="2670" width="200" height="40" style="fill:white;stroke:black;stroke-width:1" /><text x="690" y="2680" font-size="10" style="fill:blue">amigos</text><path d="M660 2290 C680 2290 660 2690 680 2690" style="fill:transparent;stroke:black" /><rect x="900" y="2670" width="200" height="40" style="fill:white;stroke:black;stroke-width:1" /><text x="910" y="2680" font-size="10" style="fill:blue">persona</text><path d="M880 2690 C900 2690 880 2690 900 2690" style="fill:transparent;stroke:black" /><text x="910" y="2690" font-size="8" style="fill:black">nombre: Jesús</text><text x="910" y="2700" font-size="8" style="fill:black">apellidos: Alonso García</text><rect x="1120" y="2670" width="200" height="40" style="fill:white;stroke:black;stroke-width:1" /><text x="1130" y="2680" font-size="10" style="fill:blue">nacimiento</text><path d="M1100 2690 C1120 2690 1100 2690 1120 2690" style="fill:transparent;stroke:black" /><text x="1130" y="2690" font-size="8" style="fill:black">fecha: 20/04/1992</text><text x="1130" y="2700" font-size="8" style="fill:black">lugar: Aviles</text><rect x="1340" y="2670" width="200" height="40" style="fill:white;stroke:black;stroke-width:1" /><text x="1350" y="2680" font-size="10" style="fill:blue">coordenadas</text><path d="M1320 2690 C1340 2690 1320 2690 1340 2690" style="fill:transparent;stroke:black" /><text x="1350" y="2690" font-size="8" style="fill:black">altitud: </text><text x="1350" y="2700" font-size="8" style="fill:black">latitud: </text><text x="1350" y="2710" font-size="8" style="fill:black">longitud: </text><rect x="1120" y="2770" width="200" height="40" style="fill:white;stroke:black;stroke-width:1" /><text x="1130" y="2780" font-size="10" style="fill:blue">fotografias</text><path d="M1100 2690 C1120 2690 1100 2790 1120 2790" style="fill:transparent;stroke:black" /><rect x="1340" y="2770" width="200" height="40" style="fill:white;stroke:black;stroke-width:1" /><text x="1350" y="2780" font-size="10" style="fill:blue">fotografia</text><path d="M1320 2790 C1340 2790 1320 2790 1340 2790" style="fill:transparent;stroke:black" /><text x="1350" y="2790" font-size="8" style="fill:black">path: </text><rect x="1120" y="2870" width="200" height="40" style="fill:white;stroke:black;stroke-width:1" /><text x="1130" y="2880" font-size="10" style="fill:blue">videos</text><path d="M1100 2690 C1120 2690 1100 2890 1120 2890" style="fill:transparent;stroke:black" /><rect x="1340" y="2870" width="200" height="40" style="fill:white;stroke:black;stroke-width:1" /><text x="1350" y="2880" font-size="10" style="fill:blue">video</text><path d="M1320 2890 C1340 2890 1320 2890 1340 2890" style="fill:transparent;stroke:black" /><text x="1350" y="2890" font-size="8" style="fill:black">path: </text><rect x="1120" y="2970" width="200" height="40" style="fill:white;stroke:black;stroke-width:1" /><text x="1130" y="2980" font-size="10" style="fill:blue">comentarios</text><path d="M1100 2690 C1120 2690 1100 2990 1120 2990" style="fill:transparent;stroke:black" /><rect x="1340" y="2970" width="200" height="40" style="fill:white;stroke:black;stroke-width:1" /><text x="1350" y="2980" font-size="10" style="fill:blue">comentario</text><path d="M1320 2990 C1340 2990 1320 2990 1340 2990" style="fill:transparent;stroke:black" /><text x="1350" y="2990" font-size="8" style="fill:black">valor: Un maquina</text><rect x="900" y="3120" width="200" height="40" style="fill:white;stroke:black;stroke-width:1" /><text x="910" y="3130" font-size="10" style="fill:blue">persona</text><path d="M880 2690 C900 2690 880 3140 900 3140" style="fill:transparent;stroke:black" /><text x="910" y="3140" font-size="8" style="fill:black">nombre: Jesús</text><text x="910" y="3150" font-size="8" style="fill:black">apellidos: Alonso García</text><rect x="1120" y="3120" width="200" height="40" style="fill:white;stroke:black;stroke-width:1" /><text x="1130" y="3130" font-size="10" style="fill:blue">nacimiento</text><path d="M1100 3140 C1120 3140 1100 3140 1120 3140" style="fill:transparent;stroke:black" /><text x="1130" y="3140" font-size="8" style="fill:black">fecha: 01/08/1994</text><text x="1130" y="3150" font-size="8" style="fill:black">lugar: Candas</text><rect x="1340" y="3120" width="200" height="40" style="fill:white;stroke:black;stroke-width:1" /><text x="1350" y="3130" font-size="10" style="fill:blue">coordenadas</text><path d="M1320 3140 C1340 3140 1320 3140 1340 3140" style="fill:transparent;stroke:black" /><text x="1350" y="3140" font-size="8" style="fill:black">altitud: </text><text x="1350" y="3150" font-size="8" style="fill:black">latitud: </text><text x="1350" y="3160" font-size="8" style="fill:black">longitud: </text><rect x="1120" y="3220" width="200" height="40" style="fill:white;stroke:black;stroke-width:1" /><text x="1130" y="3230" font-size="10" style="fill:blue">fotografias</text><path d="M1100 3140 C1120 3140 1100 3240 1120 3240" style="fill:transparent;stroke:black" /><rect x="1340" y="3220" width="200" height="40" style="fill:white;stroke:black;stroke-width:1" /><text x="1350" y="3230" font-size="10" style="fill:blue">fotografia</text><path d="M1320 3240 C1340 3240 1320 3240 1340 3240" style="fill:transparent;stroke:black" /><text x="1350" y="3240" font-size="8" style="fill:black">path: </text><rect x="1120" y="3320" width="200" height="40" style="fill:white;stroke:black;stroke-width:1" /><text x="1130" y="3330" font-size="10" style="fill:blue">videos</text><path d="M1100 3140 C1120 3140 1100 3340 1120 3340" style="fill:transparent;stroke:black" /><rect x="1340" y="3320" width="200" height="40" style="fill:white;stroke:black;stroke-width:1" /><text x="1350" y="3330" font-size="10" style="fill:blue">video</text><path d="M1320 3340 C1340 3340 1320 3340 1340 3340" style="fill:transparent;stroke:black" /><text x="1350" y="3340" font-size="8" style="fill:black">path: </text><rect x="1120" y="3420" width="200" height="40" style="fill:white;stroke:black;stroke-width:1" /><text x="1130" y="3430" font-size="10" style="fill:blue">comentarios</text><path d="M1100 3140 C1120 3140 1100 3440 1120 3440" style="fill:transparent;stroke:black" /><rect x="1340" y="3420" width="200" height="40" style="fill:white;stroke:black;stroke-width:1" /><text x="1350" y="3430" font-size="10" style="fill:blue">comentario</text><path d="M1320 3440 C1340 3440 1320 3440 1340 3440" style="fill:transparent;stroke:black" /><text x="1350" y="3440" font-size="8" style="fill:black">valor: Un maquina</text><rect x="900" y="3570" width="200" height="40" style="fill:white;stroke:black;stroke-width:1" /><text x="910" y="3580" font-size="10" style="fill:blue">persona</text><path d="M880 2690 C900 2690 880 3590 900 3590" style="fill:transparent;stroke:black" /><text x="910" y="3590" font-size="8" style="fill:black">nombre: Jesús</text><text x="910" y="3600" font-size="8" style="fill:black">apellidos: Alonso García</text><rect x="1120" y="3570" width="200" height="40" style="fill:white;stroke:black;stroke-width:1" /><text x="1130" y="3580" font-size="10" style="fill:blue">nacimiento</text><path d="M1100 3590 C1120 3590 1100 3590 1120 3590" style="fill:transparent;stroke:black" /><text x="1130" y="3590" font-size="8" style="fill:black">fecha: 02/07/1998</text><text x="1130" y="3600" font-size="8" style="fill:black">lugar: Sevilla</text><rect x="1340" y="3570" width="200" height="40" style="fill:white;stroke:black;stroke-width:1" /><text x="1350" y="3580" font-size="10" style="fill:blue">coordenadas</text><path d="M1320 3590 C1340 3590 1320 3590 1340 3590" style="fill:transparent;stroke:black" /><text x="1350" y="3590" font-size="8" style="fill:black">altitud: </text><text x="1350" y="3600" font-size="8" style="fill:black">latitud: </text><text x="1350" y="3610" font-size="8" style="fill:black">longitud: </text><rect x="1120" y="3670" width="200" height="40" style="fill:white;stroke:black;stroke-width:1" /><text x="1130" y="3680" font-size="10" style="fill:blue">fotografias</text><path d="M1100 3590 C1120 3590 1100 3690 1120 3690" style="fill:transparent;stroke:black" /><rect x="1340" y="3670" width="200" height="40" style="fill:white;stroke:black;stroke-width:1" /><text x="1350" y="3680" font-size="10" style="fill:blue">fotografia</text><path d="M1320 3690 C1340 3690 1320 3690 1340 3690" style="fill:transparent;stroke:black" /><text x="1350" y="3690" font-size="8" style="fill:black">path: </text><rect x="1120" y="3770" width="200" height="40" style="fill:white;stroke:black;stroke-width:1" /><text x="1130" y="3780" font-size="10" style="fill:blue">videos</text><path d="M1100 3590 C1120 3590 1100 3790 1120 3790" style="fill:transparent;stroke:black" /><rect x="1340" y="3770" width="200" height="40" style="fill:white;stroke:black;stroke-width:1" /><text x="1350" y="3780" font-size="10" style="fill:blue">video</text><path d="M1320 3790 C1340 3790 1320 3790 1340 3790" style="fill:transparent;stroke:black" /><text x="1350" y="3790" font-size="8" style="fill:black">path: </text><rect x="1120" y="3870" width="200" height="40" style="fill:white;stroke:black;stroke-width:1" /><text x="1130" y="3880" font-size="10" style="fill:blue">comentarios</text><path d="M1100 3590 C1120 3590 1100 3890 1120 3890" style="fill:transparent;stroke:black" /><rect x="1340" y="3870" width="200" height="40" style="fill:white;stroke:black;stroke-width:1" /><text x="1350" y="3880" font-size="10" style="fill:blue">comentario</text><path d="M1320 3890 C1340 3890 1320 3890 1340 3890" style="fill:transparent;stroke:black" /><text x="1350" y="3890" font-size="8" style="fill:black">valor: Un maquina</text><rect x="460" y="4120" width="200" height="40" style="fill:white;stroke:black;stroke-width:1" /><text x="470" y="4130" font-size="10" style="fill:blue">persona</text><path d="M440 440 C460 440 440 4140 460 4140" style="fill:transparent;stroke:black" /><text x="470" y="4140" font-size="8" style="fill:black">nombre: Jesús</text><text x="470" y="4150" font-size="8" style="fill:black">apellidos: Alonso García</text><rect x="680" y="4120" width="200" height="40" style="fill:white;stroke:black;stroke-width:1" /><text x="690" y="4130" font-size="10" style="fill:blue">nacimiento</text><path d="M660 4140 C680 4140 660 4140 680 4140" style="fill:transparent;stroke:black" /><text x="690" y="4140" font-size="8" style="fill:black">fecha: 20/03/2008</text><text x="690" y="4150" font-size="8" style="fill:black">lugar: Madrid</text><rect x="900" y="4120" width="200" height="40" style="fill:white;stroke:black;stroke-width:1" /><text x="910" y="4130" font-size="10" style="fill:blue">coordenadas</text><path d="M880 4140 C900 4140 880 4140 900 4140" style="fill:transparent;stroke:black" /><text x="910" y="4140" font-size="8" style="fill:black">altitud: </text><text x="910" y="4150" font-size="8" style="fill:black">latitud: </text><text x="910" y="4160" font-size="8" style="fill:black">longitud: </text><rect x="680" y="4220" width="200" height="40" style="fill:white;stroke:black;stroke-width:1" /><text x="690" y="4230" font-size="10" style="fill:blue">fotografias</text><path d="M660 4140 C680 4140 660 4240 680 4240" style="fill:transparent;stroke:black" /><rect x="900" y="4220" width="200" height="40" style="fill:white;stroke:black;stroke-width:1" /><text x="910" y="4230" font-size="10" style="fill:blue">fotografia</text><path d="M880 4240 C900 4240 880 4240 900 4240" style="fill:transparent;stroke:black" /><text x="910" y="4240" font-size="8" style="fill:black">path: </text><rect x="680" y="4320" width="200" height="40" style="fill:white;stroke:black;stroke-width:1" /><text x="690" y="4330" font-size="10" style="fill:blue">videos</text><path d="M660 4140 C680 4140 660 4340 680 4340" style="fill:transparent;stroke:black" /><rect x="900" y="4320" width="200" height="40" style="fill:white;stroke:black;stroke-width:1" /><text x="910" y="4330" font-size="10" style="fill:blue">video</text><path d="M880 4340 C900 4340 880 4340 900 4340" style="fill:transparent;stroke:black" /><text x="910" y="4340" font-size="8" style="fill:black">path: </text><rect x="680" y="4420" width="200" height="40" style="fill:white;stroke:black;stroke-width:1" /><text x="690" y="4430" font-size="10" style="fill:blue">comentarios</text><path d="M660 4140 C680 4140 660 4440 680 4440" style="fill:transparent;stroke:black" /><rect x="900" y="4420" width="200" height="40" style="fill:white;stroke:black;stroke-width:1" /><text x="910" y="4430" font-size="10" style="fill:blue">comentario</text><path d="M880 4440 C900 4440 880 4440 900 4440" style="fill:transparent;stroke:black" /><text x="910" y="4440" font-size="8" style="fill:black">valor: Un maquina</text><rect x="680" y="4520" width="200" height="40" style="fill:white;stroke:black;stroke-width:1" /><text x="690" y="4530" font-size="10" style="fill:blue">amigos</text><path d="M660 4140 C680 4140 660 4540 680 4540" style="fill:transparent;stroke:black" /><rect x="900" y="4520" width="200" height="40" style="fill:white;stroke:black;stroke-width:1" /><text x="910" y="4530" font-size="10" style="fill:blue">persona</text><path d="M880 4540 C900 4540 880 4540 900 4540" style="fill:transparent;stroke:black" /><text x="910" y="4540" font-size="8" style="fill:black">nombre: Jesús</text><text x="910" y="4550" font-size="8" style="fill:black">apellidos: Alonso García</text><rect x="1120" y="4520" width="200" height="40" style="fill:white;stroke:black;stroke-width:1" /><text x="1130" y="4530" font-size="10" style="fill:blue">nacimiento</text><path d="M1100 4540 C1120 4540 1100 4540 1120 4540" style="fill:transparent;stroke:black" /><text x="1130" y="4540" font-size="8" style="fill:black">fecha: 17/12/2013</text><text x="1130" y="4550" font-size="8" style="fill:black">lugar: Barcelona</text><rect x="1340" y="4520" width="200" height="40" style="fill:white;stroke:black;stroke-width:1" /><text x="1350" y="4530" font-size="10" style="fill:blue">coordenadas</text><path d="M1320 4540 C1340 4540 1320 4540 1340 4540" style="fill:transparent;stroke:black" /><text x="1350" y="4540" font-size="8" style="fill:black">altitud: </text><text x="1350" y="4550" font-size="8" style="fill:black">latitud: </text><text x="1350" y="4560" font-size="8" style="fill:black">longitud: </text><rect x="1120" y="4620" width="200" height="40" style="fill:white;stroke:black;stroke-width:1" /><text x="1130" y="4630" font-size="10" style="fill:blue">fotografias</text><path d="M1100 4540 C1120 4540 1100 4640 1120 4640" style="fill:transparent;stroke:black" /><rect x="1340" y="4620" width="200" height="40" style="fill:white;stroke:black;stroke-width:1" /><text x="1350" y="4630" font-size="10" style="fill:blue">fotografia</text><path d="M1320 4640 C1340 4640 1320 4640 1340 4640" style="fill:transparent;stroke:black" /><text x="1350" y="4640" font-size="8" style="fill:black">path: </text><rect x="1120" y="4720" width="200" height="40" style="fill:white;stroke:black;stroke-width:1" /><text x="1130" y="4730" font-size="10" style="fill:blue">videos</text><path d="M1100 4540 C1120 4540 1100 4740 1120 4740" style="fill:transparent;stroke:black" /><rect x="1340" y="4720" width="200" height="40" style="fill:white;stroke:black;stroke-width:1" /><text x="1350" y="4730" font-size="10" style="fill:blue">video</text><path d="M1320 4740 C1340 4740 1320 4740 1340 4740" style="fill:transparent;stroke:black" /><text x="1350" y="4740" font-size="8" style="fill:black">path: </text><rect x="1120" y="4820" width="200" height="40" style="fill:white;stroke:black;stroke-width:1" /><text x="1130" y="4830" font-size="10" style="fill:blue">comentarios</text><path d="M1100 4540 C1120 4540 1100 4840 1120 4840" style="fill:transparent;stroke:black" /><rect x="1340" y="4820" width="200" height="40" style="fill:white;stroke:black;stroke-width:1" /><text x="1350" y="4830" font-size="10" style="fill:blue">comentario</text><path d="M1320 4840 C1340 4840 1320 4840 1340 4840" style="fill:transparent;stroke:black" /><text x="1350" y="4840" font-size="8" style="fill:black">valor: Un maquina</text><rect x="900" y="4970" width="200" height="40" style="fill:white;stroke:black;stroke-width:1" /><text x="910" y="4980" font-size="10" style="fill:blue">persona</text><path d="M880 4540 C900 4540 880 4990 900 4990" style="fill:transparent;stroke:black" /><text x="910" y="4990" font-size="8" style="fill:black">nombre: Jesús</text><text x="910" y="5000" font-size="8" style="fill:black">apellidos: Alonso García</text><rect x="1120" y="4970" width="200" height="40" style="fill:white;stroke:black;stroke-width:1" /><text x="1130" y="4980" font-size="10" style="fill:blue">nacimiento</text><path d="M1100 4990 C1120 4990 1100 4990 1120 4990" style="fill:transparent;stroke:black" /><text x="1130" y="4990" font-size="8" style="fill:black">fecha: 20/05/2015</text><text x="1130" y="5000" font-size="8" style="fill:black">lugar: Valencia</text><rect x="1340" y="4970" width="200" height="40" style="fill:white;stroke:black;stroke-width:1" /><text x="1350" y="4980" font-size="10" style="fill:blue">coordenadas</text><path d="M1320 4990 C1340 4990 1320 4990 1340 4990" style="fill:transparent;stroke:black" /><text x="1350" y="4990" font-size="8" style="fill:black">altitud: </text><text x="1350" y="5000" font-size="8" style="fill:black">latitud: </text><text x="1350" y="5010" font-size="8" style="fill:black">longitud: </text><rect x="1120" y="5070" width="200" height="40" style="fill:white;stroke:black;stroke-width:1" /><text x="1130" y="5080" font-size="10" style="fill:blue">fotografias</text><path d="M1100 4990 C1120 4990 1100 5090 1120 5090" style="fill:transparent;stroke:black" /><rect x="1340" y="5070" width="200" height="40" style="fill:white;stroke:black;stroke-width:1" /><text x="1350" y="5080" font-size="10" style="fill:blue">fotografia</text><path d="M1320 5090 C1340 5090 1320 5090 1340 5090" style="fill:transparent;stroke:black" /><text x="1350" y="5090" font-size="8" style="fill:black">path: </text><rect x="1120" y="5170" width="200" height="40" style="fill:white;stroke:black;stroke-width:1" /><text x="1130" y="5180" font-size="10" style="fill:blue">videos</text><path d="M1100 4990 C1120 4990 1100 5190 1120 5190" style="fill:transparent;stroke:black" /><rect x="1340" y="5170" width="200" height="40" style="fill:white;stroke:black;stroke-width:1" /><text x="1350" y="5180" font-size="10" style="fill:blue">video</text><path d="M1320 5190 C1340 5190 1320 5190 1340 5190" style="fill:transparent;stroke:black" /><text x="1350" y="5190" font-size="8" style="fill:black">path: </text><rect x="1120" y="5270" width="200" height="40" style="fill:white;stroke:black;stroke-width:1" /><text x="1130" y="5280" font-size="10" style="fill:blue">comentarios</text><path d="M1100 4990 C1120 4990 1100 5290 1120 5290" style="fill:transparent;stroke:black" /><rect x="1340" y="5270" width="200" height="40" style="fill:white;stroke:black;stroke-width:1" /><text x="1350" y="5280" font-size="10" style="fill:blue">comentario</text><path d="M1320 5290 C1340 5290 1320 5290 1340 5290" style="fill:transparent;stroke:black" /><text x="1350" y="5290" font-size="8" style="fill:black">valor: Un maquina</text><rect x="900" y="5420" width="200" height="40" style="fill:white;stroke:black;stroke-width:1" /><text x="910" y="5430" font-size="10" style="fill:blue">persona</text><path d="M880 4540 C900 4540 880 5440 900 5440" style="fill:transparent;stroke:black" /><text x="910" y="5440" font-size="8" style="fill:black">nombre: Jesús</text><text x="910" y="5450" font-size="8" style="fill:black">apellidos: Alonso García</text><rect x="1120" y="5420" width="200" height="40" style="fill:white;stroke:black;stroke-width:1" /><text x="1130" y="5430" font-size="10" style="fill:blue">nacimiento</text><path d="M1100 5440 C1120 5440 1100 5440 1120 5440" style="fill:transparent;stroke:black" /><text x="1130" y="5440" font-size="8" style="fill:black">fecha: 12/02/2016</text><text x="1130" y="5450" font-size="8" style="fill:black">lugar: Jaen</text><rect x="1340" y="5420" width="200" height="40" style="fill:white;stroke:black;stroke-width:1" /><text x="1350" y="5430" font-size="10" style="fill:blue">coordenadas</text><path d="M1320 5440 C1340 5440 1320 5440 1340 5440" style="fill:transparent;stroke:black" /><text x="1350" y="5440" font-size="8" style="fill:black">altitud: </text><text x="1350" y="5450" font-size="8" style="fill:black">latitud: </text><text x="1350" y="5460" font-size="8" style="fill:black">longitud: </text><rect x="1120" y="5520" width="200" height="40" style="fill:white;stroke:black;stroke-width:1" /><text x="1130" y="5530" font-size="10" style="fill:blue">fotografias</text><path d="M1100 5440 C1120 5440 1100 5540 1120 5540" style="fill:transparent;stroke:black" /><rect x="1340" y="5520" width="200" height="40" style="fill:white;stroke:black;stroke-width:1" /><text x="1350" y="5530" font-size="10" style="fill:blue">fotografia</text><path d="M1320 5540 C1340 5540 1320 5540 1340 5540" style="fill:transparent;stroke:black" /><text x="1350" y="5540" font-size="8" style="fill:black">path: </text><rect x="1120" y="5620" width="200" height="40" style="fill:white;stroke:black;stroke-width:1" /><text x="1130" y="5630" font-size="10" style="fill:blue">videos</text><path d="M1100 5440 C1120 5440 1100 5640 1120 5640" style="fill:transparent;stroke:black" /><rect x="1340" y="5620" width="200" height="40" style="fill:white;stroke:black;stroke-width:1" /><text x="1350" y="5630" font-size="10" style="fill:blue">video</text><path d="M1320 5640 C1340 5640 1320 5640 1340 5640" style="fill:transparent;stroke:black" /><text x="1350" y="5640" font-size="8" style="fill:black">path: </text><rect x="1120" y="5720" width="200" height="40" style="fill:white;stroke:black;stroke-width:1" /><text x="1130" y="5730" font-size="10" style="fill:blue">comentarios</text><path d="M1100 5440 C1120 5440 1100 5740 1120 5740" style="fill:transparent;stroke:black" /><rect x="1340" y="5720" width="200" height="40" style="fill:white;stroke:black;stroke-width:1" /><text x="1350" y="5730" font-size="10" style="fill:blue">comentario</text><path d="M1320 5740 C1340 5740 1320 5740 1340 5740" style="fill:transparent;stroke:black" /><text x="1350" y="5740" font-size="8" style="fill:black">valor: Un maquina</text></svg>